<?xml version="1.0" encoding="UTF-8"?>
<svg version="1.1" xmlns="http://www.w3.org/2000/svg" width="320" height="563">
<path d="M0 0 C105.6 0 211.2 0 320 0 C320 185.79 320 371.58 320 563 C214.4 563 108.8 563 0 563 C0 377.21 0 191.42 0 0 Z " fill="#FAFBFB" transform="translate(0,0)"/>
<path d="M0 0 C105.6 0 211.2 0 320 0 C320 23.1 320 46.2 320 70 C214.4 70 108.8 70 0 70 C0 46.9 0 23.8 0 0 Z " fill="#2D3945" transform="translate(0,0)"/>
<path d="M0 0 C0.99899983 -0.00521549 1.99799967 -0.01043099 3.02727222 -0.01580453 C4.13289351 -0.01134309 5.2385148 -0.00688164 6.37763977 -0.002285 C7.54583346 -0.00540498 8.71402716 -0.00852497 9.91762066 -0.01173949 C13.17014138 -0.01835865 16.42251404 -0.01594644 19.67503119 -0.00976706 C23.17882439 -0.00525784 26.68259695 -0.01221869 30.18638611 -0.0177269 C37.05424346 -0.02663897 43.92205719 -0.02469084 50.78991628 -0.01890162 C56.36956596 -0.01439225 61.94920339 -0.01376907 67.52885437 -0.01594925 C68.7182117 -0.01640895 68.7182117 -0.01640895 69.93159646 -0.01687793 C71.54216393 -0.01751736 73.1527314 -0.01816578 74.76329887 -0.01882312 C89.87993215 -0.02453172 104.9965412 -0.01796021 120.1131705 -0.00722238 C133.09530065 0.00171361 146.07739504 0.00016172 159.05952454 -0.00905991 C174.12057618 -0.01975318 189.18160657 -0.02398235 204.24266148 -0.01783538 C205.84743817 -0.01719825 207.45221487 -0.01656951 209.05699158 -0.01594925 C210.24148778 -0.01548642 210.24148778 -0.01548642 211.4499132 -0.01501425 C217.02546712 -0.01328447 222.60100761 -0.01620847 228.17655945 -0.02090836 C234.96755913 -0.02650674 241.75851255 -0.0250228 248.5495069 -0.01434687 C252.01705075 -0.00907603 255.48451736 -0.00705727 258.9520607 -0.01364517 C262.70418753 -0.01906818 266.45609361 -0.01230605 270.20820618 -0.002285 C271.31382747 -0.00674645 272.41944876 -0.01120789 273.55857372 -0.01580453 C275.05707347 -0.00798129 275.05707347 -0.00798129 276.58584595 0 C277.45280248 0.0003247 278.31975901 0.00064941 279.21298695 0.00098395 C281.29292297 0.25168228 281.29292297 0.25168228 283.29292297 2.25168228 C283.54689026 4.22507095 283.54689026 4.22507095 283.55171204 6.66965103 C283.55801636 7.58399918 283.56432068 8.49834732 283.57081604 9.44040298 C283.56474335 10.92479874 283.56474335 10.92479874 283.55854797 12.43918228 C283.56046143 13.45262711 283.56237488 14.46607193 283.56434631 15.5102272 C283.56570889 17.6554934 283.56200745 19.80076781 283.55366516 21.94601822 C283.54296679 25.238198 283.55355817 28.52983206 283.56636047 31.82199478 C283.56503889 33.90272516 283.56247653 35.98345519 283.55854797 38.06418228 C283.56259644 39.05377945 283.5666449 40.04337662 283.57081604 41.06296158 C283.56135956 42.4344838 283.56135956 42.4344838 283.55171204 43.83371353 C283.55012085 44.64042496 283.54852966 45.44713638 283.54689026 46.27829361 C283.29292297 48.25168228 283.29292297 48.25168228 281.29292297 50.25168228 C279.21298695 50.50238061 279.21298695 50.50238061 276.58584595 50.50336456 C275.58684611 50.50858006 274.58784628 50.51379555 273.55857372 50.51916909 C272.45295243 50.51470765 271.34733114 50.51024621 270.20820618 50.50564957 C269.04001248 50.50876955 267.87181879 50.51188953 266.66822529 50.51510406 C263.41570457 50.52172321 260.16333191 50.519311 256.91081476 50.51313162 C253.40702156 50.5086224 249.90324899 50.51558325 246.39945984 50.52109146 C239.53160249 50.53000354 232.66378876 50.52805541 225.79592967 50.52226618 C220.21627999 50.51775681 214.63664256 50.51713364 209.05699158 50.51931381 C207.86763424 50.51977351 207.86763424 50.51977351 206.65424949 50.5202425 C205.04368202 50.52088192 203.43311454 50.52153035 201.82254708 50.52218768 C186.7059138 50.52789629 171.58930475 50.52132477 156.47267544 50.51058695 C143.4905453 50.50165095 130.50845091 50.50320285 117.52632141 50.51242447 C102.46526977 50.52311774 87.40423938 50.52734692 72.34318447 50.52119994 C70.73840777 50.52056282 69.13363107 50.51993408 67.52885437 50.51931381 C66.34435816 50.51885099 66.34435816 50.51885099 65.13593274 50.51837881 C59.56037882 50.51664903 53.98483834 50.51957304 48.4092865 50.52427292 C41.61828682 50.5298713 34.8273334 50.52838737 28.03633904 50.51771143 C24.5687952 50.51244059 21.10132859 50.51042183 17.63378525 50.51700974 C13.88165842 50.52243274 10.12975234 50.51567061 6.37763977 50.50564957 C5.27201848 50.51011101 4.16639719 50.51457245 3.02727222 50.51916909 C1.52877247 50.51134585 1.52877247 50.51134585 0 50.50336456 C-0.86695653 50.50303986 -1.73391306 50.50271515 -2.627141 50.50238061 C-4.70707703 50.25168228 -4.70707703 50.25168228 -6.70707703 48.25168228 C-6.96104431 46.27829361 -6.96104431 46.27829361 -6.96586609 43.83371353 C-6.97217041 42.91936539 -6.97847473 42.00501724 -6.98497009 41.06296158 C-6.98092163 40.07336441 -6.97687317 39.08376724 -6.97270203 38.06418228 C-6.97461548 37.05073746 -6.97652893 36.03729263 -6.97850037 34.99313736 C-6.97986294 32.84787117 -6.9761615 30.70259675 -6.96781921 28.55734634 C-6.95712085 25.26516656 -6.96771222 21.9735325 -6.98051453 18.68136978 C-6.97919294 16.6006394 -6.97663058 14.51990937 -6.97270203 12.43918228 C-6.97675049 11.44958511 -6.98079895 10.45998795 -6.98497009 9.44040298 C-6.97866577 8.52605484 -6.97236145 7.6117067 -6.96586609 6.66965103 C-6.9642749 5.86293961 -6.96268372 5.05622818 -6.96104431 4.22507095 C-6.40494852 -0.095931 -3.67588924 0.00137675 0 0 Z " fill="#EEEFF0" transform="translate(21.707077026367188,407.74831771850586)"/>
<path d="M0 0 C0.99899983 -0.00521549 1.99799967 -0.01043099 3.02727222 -0.01580453 C4.13289351 -0.01134309 5.2385148 -0.00688164 6.37763977 -0.002285 C7.54583346 -0.00540498 8.71402716 -0.00852497 9.91762066 -0.01173949 C13.17014138 -0.01835865 16.42251404 -0.01594644 19.67503119 -0.00976706 C23.17882439 -0.00525784 26.68259695 -0.01221869 30.18638611 -0.0177269 C37.05424346 -0.02663897 43.92205719 -0.02469084 50.78991628 -0.01890162 C56.36956596 -0.01439225 61.94920339 -0.01376907 67.52885437 -0.01594925 C68.7182117 -0.01640895 68.7182117 -0.01640895 69.93159646 -0.01687793 C71.54216393 -0.01751736 73.1527314 -0.01816578 74.76329887 -0.01882312 C89.87993215 -0.02453172 104.9965412 -0.01796021 120.1131705 -0.00722238 C133.09530065 0.00171361 146.07739504 0.00016172 159.05952454 -0.00905991 C174.12057618 -0.01975318 189.18160657 -0.02398235 204.24266148 -0.01783538 C205.84743817 -0.01719825 207.45221487 -0.01656951 209.05699158 -0.01594925 C210.24148778 -0.01548642 210.24148778 -0.01548642 211.4499132 -0.01501425 C217.02546712 -0.01328447 222.60100761 -0.01620847 228.17655945 -0.02090836 C234.96755913 -0.02650674 241.75851255 -0.0250228 248.5495069 -0.01434687 C252.01705075 -0.00907603 255.48451736 -0.00705727 258.9520607 -0.01364517 C262.70418753 -0.01906818 266.45609361 -0.01230605 270.20820618 -0.002285 C271.31382747 -0.00674645 272.41944876 -0.01120789 273.55857372 -0.01580453 C275.05707347 -0.00798129 275.05707347 -0.00798129 276.58584595 0 C277.45280248 0.0003247 278.31975901 0.00064941 279.21298695 0.00098395 C281.29292297 0.25168228 281.29292297 0.25168228 283.29292297 2.25168228 C283.54689026 4.22507095 283.54689026 4.22507095 283.55171204 6.66965103 C283.55801636 7.58399918 283.56432068 8.49834732 283.57081604 9.44040298 C283.56474335 10.92479874 283.56474335 10.92479874 283.55854797 12.43918228 C283.56046143 13.45262711 283.56237488 14.46607193 283.56434631 15.5102272 C283.56570889 17.6554934 283.56200745 19.80076781 283.55366516 21.94601822 C283.54296679 25.238198 283.55355817 28.52983206 283.56636047 31.82199478 C283.56503889 33.90272516 283.56247653 35.98345519 283.55854797 38.06418228 C283.56259644 39.05377945 283.5666449 40.04337662 283.57081604 41.06296158 C283.56135956 42.4344838 283.56135956 42.4344838 283.55171204 43.83371353 C283.55012085 44.64042496 283.54852966 45.44713638 283.54689026 46.27829361 C283.29292297 48.25168228 283.29292297 48.25168228 281.29292297 50.25168228 C279.21298695 50.50238061 279.21298695 50.50238061 276.58584595 50.50336456 C275.58684611 50.50858006 274.58784628 50.51379555 273.55857372 50.51916909 C272.45295243 50.51470765 271.34733114 50.51024621 270.20820618 50.50564957 C269.04001248 50.50876955 267.87181879 50.51188953 266.66822529 50.51510406 C263.41570457 50.52172321 260.16333191 50.519311 256.91081476 50.51313162 C253.40702156 50.5086224 249.90324899 50.51558325 246.39945984 50.52109146 C239.53160249 50.53000354 232.66378876 50.52805541 225.79592967 50.52226618 C220.21627999 50.51775681 214.63664256 50.51713364 209.05699158 50.51931381 C207.86763424 50.51977351 207.86763424 50.51977351 206.65424949 50.5202425 C205.04368202 50.52088192 203.43311454 50.52153035 201.82254708 50.52218768 C186.7059138 50.52789629 171.58930475 50.52132477 156.47267544 50.51058695 C143.4905453 50.50165095 130.50845091 50.50320285 117.52632141 50.51242447 C102.46526977 50.52311774 87.40423938 50.52734692 72.34318447 50.52119994 C70.73840777 50.52056282 69.13363107 50.51993408 67.52885437 50.51931381 C66.34435816 50.51885099 66.34435816 50.51885099 65.13593274 50.51837881 C59.56037882 50.51664903 53.98483834 50.51957304 48.4092865 50.52427292 C41.61828682 50.5298713 34.8273334 50.52838737 28.03633904 50.51771143 C24.5687952 50.51244059 21.10132859 50.51042183 17.63378525 50.51700974 C13.88165842 50.52243274 10.12975234 50.51567061 6.37763977 50.50564957 C5.27201848 50.51011101 4.16639719 50.51457245 3.02727222 50.51916909 C1.52877247 50.51134585 1.52877247 50.51134585 0 50.50336456 C-0.86695653 50.50303986 -1.73391306 50.50271515 -2.627141 50.50238061 C-4.70707703 50.25168228 -4.70707703 50.25168228 -6.70707703 48.25168228 C-6.96104431 46.27829361 -6.96104431 46.27829361 -6.96586609 43.83371353 C-6.97217041 42.91936539 -6.97847473 42.00501724 -6.98497009 41.06296158 C-6.98092163 40.07336441 -6.97687317 39.08376724 -6.97270203 38.06418228 C-6.97461548 37.05073746 -6.97652893 36.03729263 -6.97850037 34.99313736 C-6.97986294 32.84787117 -6.9761615 30.70259675 -6.96781921 28.55734634 C-6.95712085 25.26516656 -6.96771222 21.9735325 -6.98051453 18.68136978 C-6.97919294 16.6006394 -6.97663058 14.51990937 -6.97270203 12.43918228 C-6.97675049 11.44958511 -6.98079895 10.45998795 -6.98497009 9.44040298 C-6.97866577 8.52605484 -6.97236145 7.6117067 -6.96586609 6.66965103 C-6.9642749 5.86293961 -6.96268372 5.05622818 -6.96104431 4.22507095 C-6.40494852 -0.095931 -3.67588924 0.00137675 0 0 Z " fill="#EEEFF0" transform="translate(21.707077026367188,311.74831771850586)"/>
<path d="M0 0 C95.7 0 191.4 0 290 0 C290 1.32 290 2.64 290 4 C194.3 4 98.6 4 0 4 C0 2.68 0 1.36 0 0 Z " fill="#2D3945" transform="translate(15,202)"/>
<path d="M0 0 C0.33 0.99 0.66 1.98 1 3 C1.37125 2.505 1.7425 2.01 2.125 1.5 C4.79160885 -0.63328708 6.67893663 -0.35330461 10 0 C12.41486943 2.41486943 12.2961925 3.12707789 12.3125 6.4375 C12.32925781 7.21996094 12.34601563 8.00242187 12.36328125 8.80859375 C11.91449279 11.51580155 11.18548266 12.38131308 9 14 C5.9375 14.375 5.9375 14.375 3 14 C2.34 13.01 1.68 12.02 1 11 C0.01 12.485 0.01 12.485 -1 14 C-4.36875585 14.36750064 -6.87672462 14.57975504 -9.9375 13 C-11.66071832 9.75629493 -11.52265149 6.5838959 -11 3 C-8.8254183 -1.34916341 -4.24620661 -0.20882983 0 0 Z " fill="#3A4650" transform="translate(129,28)"/>
<path d="M0 0 C5.61 0 11.22 0 17 0 C16.67 0.99 16.34 1.98 16 3 C14.68 2.34 13.36 1.68 12 1 C12 2.65 12 4.3 12 6 C12.99 5.67 13.98 5.34 15 5 C14.67 6.32 14.34 7.64 14 9 C13.34 8.67 12.68 8.34 12 8 C12 9.32 12 10.64 12 12 C13.32 12 14.64 12 16 12 C16 11.34 16 10.68 16 10 C16.66 10 17.32 10 18 10 C18 11.32 18 12.64 18 14 C12.06 14 6.12 14 0 14 C0 9.38 0 4.76 0 0 Z " fill="#3D4853" transform="translate(211,28)"/>
<path d="M0 0 C1.134375 0.020625 2.26875 0.04125 3.4375 0.0625 C3.4375 1.0525 3.4375 2.0425 3.4375 3.0625 C5.4175 3.0625 7.3975 3.0625 9.4375 3.0625 C9.7675 6.6925 10.0975 10.3225 10.4375 14.0625 C5.4875 14.0625 0.5375 14.0625 -4.5625 14.0625 C-4.5625 12.7425 -4.5625 11.4225 -4.5625 10.0625 C-3.9025 10.0625 -3.2425 10.0625 -2.5625 10.0625 C-2.5625 11.0525 -2.5625 12.0425 -2.5625 13.0625 C-1.5725 12.7325 -0.5825 12.4025 0.4375 12.0625 C-0.25461609 8.96291737 -0.25461609 8.96291737 -2.625 7.6875 C-4.5625 6.0625 -4.5625 6.0625 -4.875 3.4375 C-4.37298113 -0.3778434 -4.04860926 0.07102823 0 0 Z " fill="#E9EAEB" transform="translate(48.5625,100.9375)"/>
<path d="M0 0 C1.423125 -0.061875 2.84625 -0.12375 4.3125 -0.1875 C5.51326172 -0.23970703 5.51326172 -0.23970703 6.73828125 -0.29296875 C9 0 9 0 10.76953125 1.296875 C12.82047546 4.13564223 12.35543593 6.62335866 12 10 C11.0625 12.4375 11.0625 12.4375 9 14 C5.92091329 14.33302179 3.11443664 14.18054705 0 14 C0 9.38 0 4.76 0 0 Z " fill="#FBFCFC" transform="translate(143,28)"/>
<path d="M0 0 C2.41486943 2.41486943 2.2961925 3.12707789 2.3125 6.4375 C2.32925781 7.21996094 2.34601563 8.00242187 2.36328125 8.80859375 C1.91449279 11.51580155 1.18548266 12.38131308 -1 14 C-4.0625 14.375 -4.0625 14.375 -7 14 C-9.54014875 10.18977687 -9.58606955 7.46529184 -9 3 C-6.88804118 -0.75459346 -4.01124771 -0.42672848 0 0 Z " fill="#EDEEEF" transform="translate(139,28)"/>
<path d="M0 0 C1.98 0 3.96 0 6 0 C5.979375 1.134375 5.95875 2.26875 5.9375 3.4375 C5.58422523 6.81575674 5.58422523 6.81575674 7 8 C8.01540112 3.89776415 8.01540112 3.89776415 7 0 C8.98 0 10.96 0 13 0 C13 2.97 13 5.94 13 9 C13.66 9 14.32 9 15 9 C15 6.03 15 3.06 15 0 C16.32 0.33 17.64 0.66 19 1 C17.68 5.29 16.36 9.58 15 14 C13.68 13.67 12.36 13.34 11 13 C10.67 11.35 10.34 9.7 10 8 C9.34 9.98 8.68 11.96 8 14 C7.01 14 6.02 14 5 14 C4.72285156 13.15695313 4.44570312 12.31390625 4.16015625 11.4453125 C3.79792969 10.34960938 3.43570313 9.25390625 3.0625 8.125 C2.70285156 7.03445312 2.34320313 5.94390625 1.97265625 4.8203125 C1.10085926 2.09241318 1.10085926 2.09241318 0 0 Z " fill="#E1E3E5" transform="translate(229,28)"/>
<path d="M0 0 C0.66 0 1.32 0 2 0 C2 0.66 2 1.32 2 2 C2.66 2 3.32 2 4 2 C4 2.66 4 3.32 4 4 C4.66 4 5.32 4 6 4 C6 3.34 6 2.68 6 2 C7.32 2 8.64 2 10 2 C10.33 5.63 10.66 9.26 11 13 C6.65200945 13 3.20749984 12.88578944 -1 12 C-1.22162329 10.37675914 -1.42689803 8.751279 -1.625 7.125 C-1.74101562 6.22007812 -1.85703125 5.31515625 -1.9765625 4.3828125 C-1.98429688 3.59648437 -1.99203125 2.81015625 -2 2 C-1.34 1.34 -0.68 0.68 0 0 Z " fill="#F5F6F6" transform="translate(167,242)"/>
<path d="M0 0 C8.75 -0.125 8.75 -0.125 11 1 C11.125 5.75 11.125 5.75 10 8 C10.60578253 10.01927511 11.26919734 12.02253397 12 14 C10.68 13.67 9.36 13.34 8 13 C7.67 11.35 7.34 9.7 7 8 C6.34 8 5.68 8 5 8 C5.33 9.98 5.66 11.96 6 14 C4.02 14 2.04 14 0 14 C0 9.38 0 4.76 0 0 Z " fill="#BBBFC3" transform="translate(173,28)"/>
<path d="M0 0 C0 0.66 0 1.32 0 2 C-0.66 2 -1.32 2 -2 2 C-2.33 3.65 -2.66 5.3 -3 7 C-4.65 7 -6.3 7 -8 7 C-8 7.66 -8 8.32 -8 9 C-6.02 9 -4.04 9 -2 9 C-1.67 10.65 -1.34 12.3 -1 14 C-4.22791555 16.1519437 -5.28400809 16.20086443 -9 16 C-11.37002436 12.37525686 -10.84379204 10.13458098 -10 6 C-9.96377667 4.33372702 -9.95100158 2.66594626 -10 1 C-6.78548731 -0.60725635 -3.56387464 -0.05748185 0 0 Z " fill="#3A4550" transform="translate(71,104)"/>
<path d="M0 0 C2.47923801 -0.02685095 4.9581884 -0.04676547 7.4375 -0.0625 C8.14455078 -0.07087891 8.85160156 -0.07925781 9.58007812 -0.08789062 C11.38693559 -0.09653588 13.19387603 -0.05220011 15 0 C16.66342837 1.66342837 16.36048097 3.7825709 16.5625 6.0625 C16.68818359 7.44115234 16.68818359 7.44115234 16.81640625 8.84765625 C16.87699219 9.55792969 16.93757813 10.26820313 17 11 C15.35 11 13.7 11 12 11 C12.33 8.03 12.66 5.06 13 2 C12.01 2 11.02 2 10 2 C10.33 4.97 10.66 7.94 11 11 C9.35 11 7.7 11 6 11 C6.33 8.03 6.66 5.06 7 2 C6.01 2 5.02 2 4 2 C4.33 4.97 4.66 7.94 5 11 C3.35 11 1.7 11 0 11 C0 7.37 0 3.74 0 0 Z " fill="#3D4852" transform="translate(137,244)"/>
<path d="M0 0 C6.0546875 -0.1953125 6.0546875 -0.1953125 8 0 C10 2 10 2 10.3125 4.9375 C10 8 10 8 8.75 9.875 C7 11 7 11 3 11 C3 11.99 3 12.98 3 14 C3.66 14.33 4.32 14.66 5 15 C3.35 15 1.7 15 0 15 C0 10.05 0 5.1 0 0 Z " fill="#38434E" transform="translate(96,104)"/>
<path d="M0 0 C1.65 0 3.3 0 5 0 C4.67 1.98 4.34 3.96 4 6 C5.65 6 7.3 6 9 6 C8.67 4.02 8.34 2.04 8 0 C9.65 0 11.3 0 13 0 C13 4.62 13 9.24 13 14 C11.35 14 9.7 14 8 14 C8.33 12.02 8.66 10.04 9 8 C7.35 8 5.7 8 4 8 C4.33 9.98 4.66 11.96 5 14 C3.35 14 1.7 14 0 14 C0 9.38 0 4.76 0 0 Z " fill="#F2F3F4" transform="translate(86,28)"/>
<path d="M0 0 C1.65 0 3.3 0 5 0 C4.67 1.65 4.34 3.3 4 5 C4.66 5 5.32 5 6 5 C6.33 3.35 6.66 1.7 7 0 C7.99 0.33 8.98 0.66 10 1 C10.33 1.99 10.66 2.98 11 4 C11.33 2.68 11.66 1.36 12 0 C13.32 0 14.64 0 16 0 C15.57781184 1.6498275 15.13675575 3.29483665 14.6875 4.9375 C14.44386719 5.85402344 14.20023438 6.77054687 13.94921875 7.71484375 C13.63597656 8.46894531 13.32273438 9.22304687 13 10 C12.01 10.33 11.02 10.66 10 11 C9.67 9.35 9.34 7.7 9 6 C8.34 6 7.68 6 7 6 C6.67 7.65 6.34 9.3 6 11 C5.01 11 4.02 11 3 11 C2.01 7.37 1.02 3.74 0 0 Z " fill="#46505A" transform="translate(202,104)"/>
<path d="M0 0 C1.09054688 0.02320313 2.18109375 0.04640625 3.3046875 0.0703125 C4.40039062 0.08835937 5.49609375 0.10640625 6.625 0.125 C7.46804687 0.14820313 8.31109375 0.17140625 9.1796875 0.1953125 C9.1796875 0.8553125 9.1796875 1.5153125 9.1796875 2.1953125 C7.8596875 1.8653125 6.5396875 1.5353125 5.1796875 1.1953125 C5.5096875 2.1853125 5.8396875 3.1753125 6.1796875 4.1953125 C4.8596875 3.8653125 3.5396875 3.5353125 2.1796875 3.1953125 C1.8496875 4.8453125 1.5196875 6.4953125 1.1796875 8.1953125 C-0.63273302 8.22218529 -2.44526483 8.24164965 -4.2578125 8.2578125 C-5.26714844 8.26941406 -6.27648437 8.28101563 -7.31640625 8.29296875 C-9.8203125 8.1953125 -9.8203125 8.1953125 -10.8203125 7.1953125 C-10.86095082 5.52914135 -10.8630335 3.86143155 -10.8203125 2.1953125 C-9.8715625 2.2365625 -8.9228125 2.2778125 -7.9453125 2.3203125 C-4.06452374 2.16508095 -3.77112115 0.26115797 0 0 Z " fill="#B0B8C1" transform="translate(103.8203125,384.8046875)"/>
<path d="M0 0 C1.33359073 6.42548263 1.33359073 6.42548263 -0.125 8.9375 C-2.62012321 10.35140315 -4.17809019 10.43413997 -7 10 C-9.15502531 6.76746204 -9.46856135 5.74849077 -9 2 C-6.63480795 -1.94198675 -4.0732639 -0.99568673 0 0 Z " fill="#4A555F" transform="translate(188,245)"/>
<path d="M0 0 C1.33359073 6.42548263 1.33359073 6.42548263 -0.125 8.9375 C-2.62012321 10.35140315 -4.17809019 10.43413997 -7 10 C-9.15502531 6.76746204 -9.46856135 5.74849077 -9 2 C-6.63480795 -1.94198675 -4.0732639 -0.99568673 0 0 Z " fill="#4A555F" transform="translate(126,245)"/>
<path d="M0 0 C1.33359073 6.42548263 1.33359073 6.42548263 -0.125 8.9375 C-2.62012321 10.35140315 -4.17809019 10.43413997 -7 10 C-9.15502531 6.76746204 -9.46856135 5.74849077 -9 2 C-6.63480795 -1.94198675 -4.0732639 -0.99568673 0 0 Z " fill="#4A555F" transform="translate(36,245)"/>
<path d="M0 0 C1.33359073 6.42548263 1.33359073 6.42548263 -0.125 8.9375 C-2.62012321 10.35140315 -4.17809019 10.43413997 -7 10 C-9.15502531 6.76746204 -9.46856135 5.74849077 -9 2 C-6.63480795 -1.94198675 -4.0732639 -0.99568673 0 0 Z " fill="#4A555F" transform="translate(153,105)"/>
<path d="M0 0 C3.3 0 6.6 0 10 0 C9.67 0.99 9.34 1.98 9 3 C7.68 2.34 6.36 1.68 5 1 C5 2.65 5 4.3 5 6 C5.99 5.67 6.98 5.34 8 5 C7.67 6.32 7.34 7.64 7 9 C6.34 8.67 5.68 8.34 5 8 C5 9.32 5 10.64 5 12 C6.32 12 7.64 12 9 12 C9 11.34 9 10.68 9 10 C9.66 10 10.32 10 11 10 C11 11.32 11 12.64 11 14 C7.37 14 3.74 14 0 14 C0 9.38 0 4.76 0 0 Z " fill="#DADCDE" transform="translate(218,28)"/>
<path d="M0 0 C1.20462891 -0.02126953 1.20462891 -0.02126953 2.43359375 -0.04296875 C4.5625 0.1875 4.5625 0.1875 6.5625 2.1875 C7.26187532 3.50397119 7.92979133 4.83772151 8.5625 6.1875 C8.8925 6.8475 9.2225 7.5075 9.5625 8.1875 C8.5725 8.1875 7.5825 8.1875 6.5625 8.1875 C6.5625 7.5275 6.5625 6.8675 6.5625 6.1875 C5.9025 6.1875 5.2425 6.1875 4.5625 6.1875 C4.5625 6.8475 4.5625 7.5075 4.5625 8.1875 C3.08343108 8.21439216 1.60422517 8.23384621 0.125 8.25 C-1.11056641 8.26740234 -1.11056641 8.26740234 -2.37109375 8.28515625 C-4.4375 8.1875 -4.4375 8.1875 -5.4375 7.1875 C-5.5625 4.1875 -5.5625 4.1875 -5.4375 1.1875 C-3.84855928 -0.40144072 -2.18948576 0.01751589 0 0 Z " fill="#CED1D4" transform="translate(238.4375,153.8125)"/>
<path d="M0 0 C2.5 0.25 2.5 0.25 4.5 2.25 C4.75 5.75 4.75 5.75 4.5 9.25 C2.5 11.25 2.5 11.25 0 11.5 C-2.5 11.25 -2.5 11.25 -4.5 9.25 C-4.75 5.75 -4.75 5.75 -4.5 2.25 C-2.5 0.25 -2.5 0.25 0 0 Z " fill="#3F4A55" transform="translate(124.5,103.75)"/>
<path d="M0 0 C3.3 0 6.6 0 10 0 C10 0.99 10 1.98 10 3 C9.34 3 8.68 3 8 3 C8 2.34 8 1.68 8 1 C6.68 1 5.36 1 4 1 C4 2.65 4 4.3 4 6 C4.66 6 5.32 6 6 6 C6 5.34 6 4.68 6 4 C6.66 4 7.32 4 8 4 C8 5.65 8 7.3 8 9 C6.68 8.67 5.36 8.34 4 8 C4 9.65 4 11.3 4 13 C5.32 13 6.64 13 8 13 C8.33 12.01 8.66 11.02 9 10 C9.33 11.32 9.66 12.64 10 14 C6.7 14 3.4 14 0 14 C0 9.38 0 4.76 0 0 Z " fill="#EDEEEF" transform="translate(157,28)"/>
<path d="M0 0 C3.3 0 6.6 0 10 0 C10 0.99 10 1.98 10 3 C9.34 3 8.68 3 8 3 C8 2.34 8 1.68 8 1 C6.68 1 5.36 1 4 1 C4 2.65 4 4.3 4 6 C4.66 6 5.32 6 6 6 C6 5.34 6 4.68 6 4 C6.66 4 7.32 4 8 4 C8 5.65 8 7.3 8 9 C6.68 8.67 5.36 8.34 4 8 C4 9.65 4 11.3 4 13 C5.32 13 6.64 13 8 13 C8.33 12.01 8.66 11.02 9 10 C9.33 11.32 9.66 12.64 10 14 C6.7 14 3.4 14 0 14 C0 9.38 0 4.76 0 0 Z " fill="#EDEEEF" transform="translate(101,28)"/>
<path d="M0 0 C1.32 0 2.64 0 4 0 C4.33 0.66 4.66 1.32 5 2 C5.66 1.67 6.32 1.34 7 1 C7 1.66 7 2.32 7 3 C8.32 3.33 9.64 3.66 11 4 C11 5.32 11 6.64 11 8 C9.20866022 8.05391993 7.41686101 8.09275571 5.625 8.125 C4.62726563 8.14820313 3.62953125 8.17140625 2.6015625 8.1953125 C0 8 0 8 -2 6 C-1.44444444 1.44444444 -1.44444444 1.44444444 0 0 Z " fill="#DEE0E2" transform="translate(98,136)"/>
<path d="M0 0 C6.8359375 -0.1953125 6.8359375 -0.1953125 9 0 C11.39763185 2.39763185 11.34280586 3.33273498 11.625 6.625 C11.69976562 7.44226563 11.77453125 8.25953125 11.8515625 9.1015625 C11.92503906 10.04128906 11.92503906 10.04128906 12 11 C10.35 11 8.7 11 7 11 C7 8.36 7 5.72 7 3 C6.01 2.67 5.02 2.34 4 2 C4.33 4.97 4.66 7.94 5 11 C3.35 11 1.7 11 0 11 C0 7.37 0 3.74 0 0 Z " fill="#4A545E" transform="translate(38,244)"/>
<path d="M0 0 C1.32 0 2.64 0 4 0 C4 2.97 4 5.94 4 9 C4.99 9 5.98 9 7 9 C6.67 6.03 6.34 3.06 6 0 C7.32 0 8.64 0 10 0 C10.33 3.63 10.66 7.26 11 11 C4.06640625 11.09765625 4.06640625 11.09765625 2 11 C0.33657163 9.33657163 0.63951903 7.2174291 0.4375 4.9375 C0.35371094 4.01839844 0.26992187 3.09929687 0.18359375 2.15234375 C0.09271484 1.08693359 0.09271484 1.08693359 0 0 Z " fill="#46515B" transform="translate(155,104)"/>
<path d="M0 0 C1.32 0 2.64 0 4 0 C4 2.97 4 5.94 4 9 C4.99 9 5.98 9 7 9 C6.67 6.03 6.34 3.06 6 0 C7.32 0 8.64 0 10 0 C10.33 3.63 10.66 7.26 11 11 C4.06640625 11.09765625 4.06640625 11.09765625 2 11 C0.33657163 9.33657163 0.63951903 7.2174291 0.4375 4.9375 C0.35371094 4.01839844 0.26992187 3.09929687 0.18359375 2.15234375 C0.09271484 1.08693359 0.09271484 1.08693359 0 0 Z " fill="#46515B" transform="translate(84,104)"/>
<path d="M0 0 C2.97 0 5.94 0 9 0 C8.67 0.99 8.34 1.98 8 3 C8 2.34 8 1.68 8 1 C6.68 1 5.36 1 4 1 C4 2.65 4 4.3 4 6 C4.66 6 5.32 6 6 6 C6 5.34 6 4.68 6 4 C6.66 4 7.32 4 8 4 C8 5.65 8 7.3 8 9 C6.68 8.67 5.36 8.34 4 8 C4 9.65 4 11.3 4 13 C5.32 13 6.64 13 8 13 C8.33 12.01 8.66 11.02 9 10 C9.33 11.32 9.66 12.64 10 14 C6.7 14 3.4 14 0 14 C0 9.38 0 4.76 0 0 Z " fill="#F1F2F2" transform="translate(187,28)"/>
<path d="M0 0 C6.93359375 -0.09765625 6.93359375 -0.09765625 9 0 C10.66342837 1.66342837 10.36048097 3.7825709 10.5625 6.0625 C10.64628906 6.98160156 10.73007813 7.90070313 10.81640625 8.84765625 C10.87699219 9.55792969 10.93757812 10.26820313 11 11 C9.35 11 7.7 11 6 11 C6.33 8.03 6.66 5.06 7 2 C6.01 2 5.02 2 4 2 C4.33 4.97 4.66 7.94 5 11 C3.35 11 1.7 11 0 11 C0 7.37 0 3.74 0 0 Z " fill="#35404B" transform="translate(190,244)"/>
<path d="M0 0 C0.66 0 1.32 0 2 0 C2 2.31 2 4.62 2 7 C2.66 6.67 3.32 6.34 4 6 C4.65772428 2.97065509 4.65772428 2.97065509 5 0 C7.31 0 9.62 0 12 0 C11.01 0.495 11.01 0.495 10 1 C9.34786708 3.02463255 9.34786708 3.02463255 9 5 C8.01 5 7.02 5 6 5 C6 5.66 6 6.32 6 7 C7.65 7 9.3 7 11 7 C11 8.32 11 9.64 11 11 C9.02 11.33 7.04 11.66 5 12 C4.67 10.68 4.34 9.36 4 8 C2.68 7.67 1.36 7.34 0 7 C0 4.69 0 2.38 0 0 Z " fill="#C7CACD" transform="translate(126,154)"/>
<path d="M0 0 C6.93359375 -0.09765625 6.93359375 -0.09765625 9 0 C10.66342837 1.66342837 10.36048097 3.7825709 10.5625 6.0625 C10.64628906 6.98160156 10.73007813 7.90070313 10.81640625 8.84765625 C10.87699219 9.55792969 10.93757813 10.26820312 11 11 C9.35 11 7.7 11 6 11 C6.33 8.03 6.66 5.06 7 2 C6.01 2 5.02 2 4 2 C4.33 4.97 4.66 7.94 5 11 C3.35 11 1.7 11 0 11 C0 7.37 0 3.74 0 0 Z " fill="#35404B" transform="translate(72,104)"/>
<path d="M0 0 C1.23556641 0.01740234 1.23556641 0.01740234 2.49609375 0.03515625 C3.32238281 0.04417969 4.14867187 0.05320313 5 0.0625 C5.63808594 0.07410156 6.27617187 0.08570313 6.93359375 0.09765625 C7.26359375 2.73765625 7.59359375 5.37765625 7.93359375 8.09765625 C7.39734375 7.91203125 6.86109375 7.72640625 6.30859375 7.53515625 C3.32630983 6.98578816 0.89825581 7.57060522 -2.06640625 8.09765625 C-3.06640625 7.09765625 -3.06640625 7.09765625 -3.19140625 4.09765625 C-3.02663038 0.14303546 -3.02663038 0.14303546 0 0 Z " fill="#DDDFE1" transform="translate(163.06640625,135.90234375)"/>
<path d="M0 0 C1.134375 0.020625 2.26875 0.04125 3.4375 0.0625 C3.4375 1.0525 3.4375 2.0425 3.4375 3.0625 C2.7775 3.0625 2.1175 3.0625 1.4375 3.0625 C1.4375 2.4025 1.4375 1.7425 1.4375 1.0625 C0.4475 1.0625 -0.5425 1.0625 -1.5625 1.0625 C-0.16917426 4.42970387 1.4164286 6.0484524 4.4375 8.0625 C3.5625 12.9375 3.5625 12.9375 2.4375 14.0625 C0.10452567 14.10342937 -2.22955225 14.10491723 -4.5625 14.0625 C-4.5625 12.7425 -4.5625 11.4225 -4.5625 10.0625 C-3.9025 10.0625 -3.2425 10.0625 -2.5625 10.0625 C-2.5625 11.0525 -2.5625 12.0425 -2.5625 13.0625 C-1.5725 12.7325 -0.5825 12.4025 0.4375 12.0625 C-0.25461609 8.96291737 -0.25461609 8.96291737 -2.625 7.6875 C-4.5625 6.0625 -4.5625 6.0625 -4.875 3.4375 C-4.37298113 -0.3778434 -4.04860926 0.07102823 0 0 Z " fill="#434D58" transform="translate(48.5625,100.9375)"/>
<path d="M0 0 C0 1.32 0 2.64 0 4 C-0.99 3.67 -1.98 3.34 -3 3 C-3 2.34 -3 1.68 -3 1 C-3.99 1.33 -4.98 1.66 -6 2 C-6 5.3 -6 8.6 -6 12 C-5.01 12 -4.02 12 -3 12 C-2.67 11.34 -2.34 10.68 -2 10 C-1.34 10 -0.68 10 0 10 C-0.33 11.32 -0.66 12.64 -1 14 C-7.42210386 14.48468708 -7.42210386 14.48468708 -9.9375 12.375 C-11.31565201 9.29442492 -11.48746608 7.34262452 -11 4 C-8.02080717 -0.52837311 -5.15974216 -0.39690324 0 0 Z " fill="#424D57" transform="translate(26,241)"/>
<path d="M0 0 C3.96 0 7.92 0 12 0 C12 1.65 12 3.3 12 5 C10.68 3.68 9.36 2.36 8 1 C8 4.96 8 8.92 8 13 C8.66 13.33 9.32 13.66 10 14 C7.69 14 5.38 14 3 14 C3.66 13.67 4.32 13.34 5 13 C5 9.04 5 5.08 5 1 C4.01 1.495 4.01 1.495 3 2 C2.34786708 4.02463255 2.34786708 4.02463255 2 6 C1.34 6 0.68 6 0 6 C0 4.02 0 2.04 0 0 Z " fill="#F3F4F5" transform="translate(72,28)"/>
<path d="M0 0 C1.98 0 3.96 0 6 0 C6.33 2.64 6.66 5.28 7 8 C7.66 5.69 8.32 3.38 9 1 C10.32 0.67 11.64 0.34 13 0 C12.35600627 1.95893905 11.70974759 3.91713364 11.0625 5.875 C10.70285156 6.96554688 10.34320313 8.05609375 9.97265625 9.1796875 C9 12 9 12 8 14 C7.01 14 6.02 14 5 14 C4.72285156 13.15695313 4.44570312 12.31390625 4.16015625 11.4453125 C3.79792969 10.34960938 3.43570313 9.25390625 3.0625 8.125 C2.70285156 7.03445312 2.34320313 5.94390625 1.97265625 4.8203125 C1.10085926 2.09241318 1.10085926 2.09241318 0 0 Z " fill="#E7E9EA" transform="translate(197,28)"/>
<path d="M0 0 C2.4375 0.1875 2.4375 0.1875 3.4375 1.1875 C3.67037008 2.86933948 3.85014166 4.5587416 4 6.25 C4.08378906 7.16910156 4.16757813 8.08820313 4.25390625 9.03515625 C4.31449219 9.74542969 4.37507813 10.45570313 4.4375 11.1875 C1.7975 11.1875 -0.8425 11.1875 -3.5625 11.1875 C-3.8925 9.5375 -4.2225 7.8875 -4.5625 6.1875 C-2.9125 5.8575 -1.2625 5.5275 0.4375 5.1875 C0.4375 4.1975 0.4375 3.2075 0.4375 2.1875 C-1.2125 2.1875 -2.8625 2.1875 -4.5625 2.1875 C-2.5625 0.1875 -2.5625 0.1875 0 0 Z " fill="#4C5660" transform="translate(62.5625,243.8125)"/>
<path d="M0 0 C0.66 0 1.32 0 2 0 C2 2.31 2 4.62 2 7 C2.99 7 3.98 7 5 7 C4.67 4.69 4.34 2.38 4 0 C7.3 0 10.6 0 14 0 C13.67 0.66 13.34 1.32 13 2 C12.34 2 11.68 2 11 2 C11 3.65 11 5.3 11 7 C11.66 7.33 12.32 7.66 13 8 C11.02090602 8.02686553 9.04171029 8.04633375 7.0625 8.0625 C5.96035156 8.07410156 4.85820312 8.08570313 3.72265625 8.09765625 C1 8 1 8 0 7 C-0.04092937 4.66702567 -0.04241723 2.33294775 0 0 Z " fill="#CDD0D3" transform="translate(231,136)"/>
<path d="M0 0 C6.93359375 -0.09765625 6.93359375 -0.09765625 9 0 C10 1 10 1 10.09765625 3.06640625 C10.08605469 3.89011719 10.07445312 4.71382813 10.0625 5.5625 C10.05347656 6.38878906 10.04445312 7.21507813 10.03515625 8.06640625 C10.02355469 8.70449219 10.01195312 9.34257813 10 10 C10.66 10.33 11.32 10.66 12 11 C10.35 11 8.7 11 7 11 C7 8.36 7 5.72 7 3 C6.01 2.67 5.02 2.34 4 2 C4.33 4.97 4.66 7.94 5 11 C3.35 11 1.7 11 0 11 C0 7.37 0 3.74 0 0 Z " fill="#4A545E" transform="translate(180,104)"/>
<path d="M0 0 C6.93359375 -0.09765625 6.93359375 -0.09765625 9 0 C10.66342837 1.66342837 10.36048097 3.7825709 10.5625 6.0625 C10.64628906 6.98160156 10.73007813 7.90070313 10.81640625 8.84765625 C10.87699219 9.55792969 10.93757813 10.26820313 11 11 C9.68 10.67 8.36 10.34 7 10 C7 7.69 7 5.38 7 3 C6.01 2.67 5.02 2.34 4 2 C4.33 4.97 4.66 7.94 5 11 C3.35 11 1.7 11 0 11 C0 7.37 0 3.74 0 0 Z " fill="#4A545E" transform="translate(97,244)"/>
<path d="M0 0 C1.65 0 3.3 0 5 0 C4.67 0.66 4.34 1.32 4 2 C3.34 2 2.68 2 2 2 C2 3.65 2 5.3 2 7 C2.66 7.33 3.32 7.66 4 8 C0.37 8 -3.26 8 -7 8 C-7.33 6.02 -7.66 4.04 -8 2 C-7.34 1.67 -6.68 1.34 -6 1 C-6 1.66 -6 2.32 -6 3 C-5.01 3 -4.02 3 -3 3 C-2.67 2.34 -2.34 1.68 -2 1 C-1.67 1.33 -1.34 1.66 -1 2 C-0.67 1.34 -0.34 0.68 0 0 Z " fill="#B5BDC5" transform="translate(114,482)"/>
<path d="M0 0 C2.5 0.125 2.5 0.125 3.5 1.125 C3.73287008 2.80683948 3.91264166 4.4962416 4.0625 6.1875 C4.14628906 7.10660156 4.23007813 8.02570313 4.31640625 8.97265625 C4.37699219 9.68292969 4.43757812 10.39320313 4.5 11.125 C1.86 11.125 -0.78 11.125 -3.5 11.125 C-3.83 9.475 -4.16 7.825 -4.5 6.125 C-2.85 5.465 -1.2 4.805 0.5 4.125 C-0.82 3.135 -2.14 2.145 -3.5 1.125 C-2.5 0.125 -2.5 0.125 0 0 Z " fill="#70787F" transform="translate(159.5,243.875)"/>
<path d="M0 0 C2.4375 0.1875 2.4375 0.1875 3.4375 1.1875 C3.47813832 2.85367115 3.480221 4.52138095 3.4375 6.1875 C1.7875 6.1875 0.1375 6.1875 -1.5625 6.1875 C-1.5625 7.1775 -1.5625 8.1675 -1.5625 9.1875 C0.0875 9.1875 1.7375 9.1875 3.4375 9.1875 C3.1075 9.8475 2.7775 10.5075 2.4375 11.1875 C0.0625 11.3125 0.0625 11.3125 -2.5625 11.1875 C-4.5625 9.1875 -4.5625 9.1875 -4.8125 5.6875 C-4.52167932 1.61601046 -4.20623277 0.30777313 0 0 Z " fill="#37434E" transform="translate(263.5625,103.8125)"/>
<path d="M0 0 C2.4375 0.1875 2.4375 0.1875 3.4375 1.1875 C3.47813832 2.85367115 3.480221 4.52138095 3.4375 6.1875 C1.7875 6.1875 0.1375 6.1875 -1.5625 6.1875 C-1.5625 7.1775 -1.5625 8.1675 -1.5625 9.1875 C0.0875 9.1875 1.7375 9.1875 3.4375 9.1875 C3.1075 9.8475 2.7775 10.5075 2.4375 11.1875 C0.0625 11.3125 0.0625 11.3125 -2.5625 11.1875 C-4.5625 9.1875 -4.5625 9.1875 -4.8125 5.6875 C-4.52167932 1.61601046 -4.20623277 0.30777313 0 0 Z " fill="#37434E" transform="translate(238.5625,103.8125)"/>
<path d="M0 0 C2.4375 0.1875 2.4375 0.1875 3.4375 1.1875 C3.47813832 2.85367115 3.480221 4.52138095 3.4375 6.1875 C1.7875 6.1875 0.1375 6.1875 -1.5625 6.1875 C-1.5625 7.1775 -1.5625 8.1675 -1.5625 9.1875 C0.0875 9.1875 1.7375 9.1875 3.4375 9.1875 C3.1075 9.8475 2.7775 10.5075 2.4375 11.1875 C0.0625 11.3125 0.0625 11.3125 -2.5625 11.1875 C-4.5625 9.1875 -4.5625 9.1875 -4.8125 5.6875 C-4.52167932 1.61601046 -4.20623277 0.30777313 0 0 Z " fill="#37434E" transform="translate(197.5625,103.8125)"/>
<path d="M0 0 C0 1.32 0 2.64 0 4 C-0.66 4 -1.32 4 -2 4 C-2.33 3.34 -2.66 2.68 -3 2 C-3.99 2.33 -4.98 2.66 -6 3 C-6.26932521 7.65052872 -6.26932521 7.65052872 -5 12 C-4.01 12.33 -3.02 12.66 -2 13 C-2 12.01 -2 11.02 -2 10 C-1.34 10 -0.68 10 0 10 C0 11.32 0 12.64 0 14 C-6.30818278 14.35706695 -6.30818278 14.35706695 -8.9375 13 C-10.65886567 9.75978228 -10.52960415 6.58042244 -10 3 C-7.8202924 -1.102979 -4.20798751 -0.23818797 0 0 Z " fill="#EDEEEF" transform="translate(128,28)"/>
<path d="M0 0 C0.66 0 1.32 0 2 0 C2 2.31 2 4.62 2 7 C2.99 7 3.98 7 5 7 C4.67 4.69 4.34 2.38 4 0 C6.31 0 8.62 0 11 0 C11 2.64 11 5.28 11 8 C9.35425434 8.02688151 7.70838587 8.04634123 6.0625 8.0625 C5.14597656 8.07410156 4.22945313 8.08570313 3.28515625 8.09765625 C1 8 1 8 0 7 C-0.04092937 4.66702567 -0.04241723 2.33294775 0 0 Z " fill="#AFB7C0" transform="translate(75,482)"/>
<path d="M0 0 C0.99 0 1.98 0 3 0 C3 3.96 3 7.92 3 12 C1.02 12 -0.96 12 -3 12 C-4 11 -4 11 -4.1875 8.5625 C-4 6 -4 6 -2 4 C-1.01 4 -0.02 4 1 4 C0.67 2.68 0.34 1.36 0 0 Z " fill="#97A2AC" transform="translate(73,381)"/>
<path d="M0 0 C0.66 0 1.32 0 2 0 C2 0.99 2 1.98 2 3 C3.65 3.33 5.3 3.66 7 4 C7.04254356 5.99954746 7.04080783 8.00041636 7 10 C6 11 6 11 2.9375 11.0625 C1.968125 11.041875 0.99875 11.02125 0 11 C0 7.37 0 3.74 0 0 Z " fill="#C3C7CA" transform="translate(224,151)"/>
<path d="M0 0 C1.32 0 2.64 0 4 0 C4 0.66 4 1.32 4 2 C3.01 2 2.02 2 1 2 C1 2.66 1 3.32 1 4 C1.66 4 2.32 4 3 4 C3 4.66 3 5.32 3 6 C2.34 6 1.68 6 1 6 C1 8.64 1 11.28 1 14 C1.66 14.33 2.32 14.66 3 15 C1.02 15 -0.96 15 -3 15 C-2.67 12.03 -2.34 9.06 -2 6 C-2.66 5.67 -3.32 5.34 -4 5 C-2.25 2.5 -2.25 2.5 0 0 Z " fill="#404B55" transform="translate(113,240)"/>
<path d="M0 0 C0.763125 0.103125 1.52625 0.20625 2.3125 0.3125 C2.3125 0.9725 2.3125 1.6325 2.3125 2.3125 C0.9925 2.3125 -0.3275 2.3125 -1.6875 2.3125 C-1.6875 2.9725 -1.6875 3.6325 -1.6875 4.3125 C-0.6975 4.3125 0.2925 4.3125 1.3125 4.3125 C1.3125 4.9725 1.3125 5.6325 1.3125 6.3125 C0.3225 6.3125 -0.6675 6.3125 -1.6875 6.3125 C-1.6875 8.9525 -1.6875 11.5925 -1.6875 14.3125 C-1.0275 14.6425 -0.3675 14.9725 0.3125 15.3125 C-1.6675 15.3125 -3.6475 15.3125 -5.6875 15.3125 C-6.14820947 6.52489335 -6.14820947 6.52489335 -4.5 2.1875 C-2.6875 0.3125 -2.6875 0.3125 0 0 Z " fill="#4E5862" transform="translate(117.6875,99.6875)"/>
<path d="M0 0 C0.33 0.66 0.66 1.32 1 2 C1.66 2.33 2.32 2.66 3 3 C2.34 3 1.68 3 1 3 C1 4.98 1 6.96 1 9 C1.66 9.33 2.32 9.66 3 10 C1.35425434 10.02688151 -0.29161413 10.04634123 -1.9375 10.0625 C-2.85402344 10.07410156 -3.77054688 10.08570313 -4.71484375 10.09765625 C-7 10 -7 10 -8 9 C-8.04063832 7.33382885 -8.042721 5.66611905 -8 4 C-5.69 4 -3.38 4 -1 4 C-0.67 2.68 -0.34 1.36 0 0 Z " fill="#CFD2D5" transform="translate(43,134)"/>
<path d="M0 0 C1.98 0.495 1.98 0.495 4 1 C4 4.3 4 7.6 4 11 C2.68 11.33 1.36 11.66 0 12 C-1.1898306 9.6203388 -1.13349966 8.08514265 -1.125 5.4375 C-1.12886719 4.22900391 -1.12886719 4.22900391 -1.1328125 2.99609375 C-1 1 -1 1 0 0 Z " fill="#394550" transform="translate(134,29)"/>
<path d="M0 0 C1.2065625 0.0309375 1.2065625 0.0309375 2.4375 0.0625 C2.7675 1.0525 3.0975 2.0425 3.4375 3.0625 C2.1175 2.7325 0.7975 2.4025 -0.5625 2.0625 C0.118125 2.619375 0.79875 3.17625 1.5 3.75 C2.4590625 4.8946875 2.4590625 4.8946875 3.4375 6.0625 C3.1875 8.8125 3.1875 8.8125 2.4375 11.0625 C0.1275 11.0625 -2.1825 11.0625 -4.5625 11.0625 C-4.5625 10.0725 -4.5625 9.0825 -4.5625 8.0625 C-2.0875 9.0525 -2.0875 9.0525 0.4375 10.0625 C0.4375 9.0725 0.4375 8.0825 0.4375 7.0625 C-0.8825 6.7325 -2.2025 6.4025 -3.5625 6.0625 C-3.605221 4.39638095 -3.60313832 2.72867115 -3.5625 1.0625 C-2.5625 0.0625 -2.5625 0.0625 0 0 Z " fill="#46505B" transform="translate(222.5625,103.9375)"/>
<path d="M0 0 C0.33 0.99 0.66 1.98 1 3 C2.65 3.33 4.3 3.66 6 4 C6.625 6.375 6.625 6.375 7 9 C6.34 9.66 5.68 10.32 5 11 C3.35 11 1.7 11 0 11 C0 7.37 0 3.74 0 0 Z " fill="#B2BAC3" transform="translate(98,479)"/>
<path d="M0 0 C4 1 4 1 5 2 C5.35897436 8.46153846 5.35897436 8.46153846 3 12 C2.01 12 1.02 12 0 12 C0 8.04 0 4.08 0 0 Z " fill="#394550" transform="translate(147,29)"/>
<path d="M0 0 C0.99 0.33 1.98 0.66 3 1 C3 4.96 3 8.92 3 13 C1.68 13 0.36 13 -1 13 C-1.02686553 11.02090602 -1.04633375 9.04171029 -1.0625 7.0625 C-1.07410156 5.96035156 -1.08570312 4.85820313 -1.09765625 3.72265625 C-1 1 -1 1 0 0 Z " fill="#394550" transform="translate(99,28)"/>
<path d="M0 0 C2.875 -0.125 2.875 -0.125 6 0 C6.66 0.66 7.32 1.32 8 2 C7.625 4.125 7.625 4.125 7 6 C5.35 6.33 3.7 6.66 2 7 C2 7.99 2 8.98 2 10 C2.66 10.33 3.32 10.66 4 11 C2.68 10.67 1.36 10.34 0 10 C0 6.7 0 3.4 0 0 Z " fill="#82909C" transform="translate(16,479)"/>
<path d="M0 0 C0.66 0 1.32 0 2 0 C2 0.66 2 1.32 2 2 C2.99 2 3.98 2 5 2 C5 2.66 5 3.32 5 4 C4.01 4 3.02 4 2 4 C2 6.31 2 8.62 2 11 C2.99 11 3.98 11 5 11 C5 11.66 5 12.32 5 13 C3.33388095 13.042721 1.66617115 13.04063832 0 13 C-1.64863668 11.35136332 -1.43756431 9.32490487 -1.6875 7.0625 C-1.79449219 6.16660156 -1.90148437 5.27070313 -2.01171875 4.34765625 C-2 2 -2 2 0 0 Z " fill="#45505A" transform="translate(79,242)"/>
<path d="M0 0 C0.66 0 1.32 0 2 0 C2 0.66 2 1.32 2 2 C2.99 2 3.98 2 5 2 C5 2.66 5 3.32 5 4 C4.01 4 3.02 4 2 4 C2 6.31 2 8.62 2 11 C2.99 11 3.98 11 5 11 C5 11.66 5 12.32 5 13 C3.33388095 13.042721 1.66617115 13.04063832 0 13 C-1.64863668 11.35136332 -1.43756431 9.32490487 -1.6875 7.0625 C-1.79449219 6.16660156 -1.90148437 5.27070312 -2.01171875 4.34765625 C-2 2 -2 2 0 0 Z " fill="#45505A" transform="translate(253,102)"/>
<path d="M0 0 C1.65 0 3.3 0 5 0 C4.67 1.98 4.34 3.96 4 6 C5.65 6 7.3 6 9 6 C9 6.33 9 6.66 9 7 C7.35 7 5.7 7 4 7 C4.33 9.31 4.66 11.62 5 14 C3.35 14 1.7 14 0 14 C0 9.38 0 4.76 0 0 Z " fill="#FCFCFC" transform="translate(86,28)"/>
<path d="M0 0 C0.99 1.32 1.98 2.64 3 4 C3.33 2.68 3.66 1.36 4 0 C6.64 0 9.28 0 12 0 C11.67 0.66 11.34 1.32 11 2 C10.01 1.67 9.02 1.34 8 1 C8 1.66 8 2.32 8 3 C9.32 3.33 10.64 3.66 12 4 C12 5.32 12 6.64 12 8 C10.35 8 8.7 8 7 8 C7.33 7.34 7.66 6.68 8 6 C8.99 6.33 9.98 6.66 11 7 C11 6.34 11 5.68 11 5 C8.525 4.01 8.525 4.01 6 3 C5.34 4.65 4.68 6.3 4 8 C1 7 1 7 -1 4 C-0.625 1.8125 -0.625 1.8125 0 0 Z " fill="#C0C4C7" transform="translate(142,136)"/>
<path d="M0 0 C0.99 0.33 1.98 0.66 3 1 C3.33 1.99 3.66 2.98 4 4 C4.33 2.68 4.66 1.36 5 0 C6.32 0 7.64 0 9 0 C8.57781184 1.6498275 8.13675575 3.29483665 7.6875 4.9375 C7.44386719 5.85402344 7.20023438 6.77054687 6.94921875 7.71484375 C6.63597656 8.46894531 6.32273438 9.22304687 6 10 C5.01 10.33 4.02 10.66 3 11 C2.49384702 9.73160474 1.99530901 8.46016898 1.5 7.1875 C1.2215625 6.47980469 0.943125 5.77210937 0.65625 5.04296875 C0 3 0 3 0 0 Z " fill="#394550" transform="translate(209,104)"/>
<path d="M0 0 C0 1.32 0 2.64 0 4 C-0.66 4 -1.32 4 -2 4 C-2 3.34 -2 2.68 -2 2 C-2.99 2.495 -2.99 2.495 -4 3 C-4 4.65 -4 6.3 -4 8 C-2.68 8.33 -1.36 8.66 0 9 C0 9.66 0 10.32 0 11 C-2.875 11.1875 -2.875 11.1875 -6 11 C-8.15502531 7.76746204 -8.46856135 6.74849077 -8 3 C-5.82311273 -0.32261741 -3.79605352 -0.30778812 0 0 Z " fill="#404A55" transform="translate(76,244)"/>
<path d="M0 0 C0.66 0 1.32 0 2 0 C2 0.66 2 1.32 2 2 C2.99 2 3.98 2 5 2 C5 2.66 5 3.32 5 4 C4.01 4 3.02 4 2 4 C2 6.31 2 8.62 2 11 C2.66 11 3.32 11 4 11 C4 11.66 4 12.32 4 13 C2.35 12.67 0.7 12.34 -1 12 C-1.22162329 10.37675914 -1.42689803 8.751279 -1.625 7.125 C-1.74101563 6.22007812 -1.85703125 5.31515625 -1.9765625 4.3828125 C-1.98429687 3.59648437 -1.99203125 2.81015625 -2 2 C-1.34 1.34 -0.68 0.68 0 0 Z " fill="#414C56" transform="translate(52,242)"/>
<path d="M0 0 C0.33 0 0.66 0 1 0 C1.33 3.63 1.66 7.26 2 11 C0.00045254 11.04254356 -2.00041636 11.04080783 -4 11 C-5 10 -5 10 -5.0625 6.9375 C-5.041875 5.968125 -5.02125 4.99875 -5 4 C-3.35 3.67 -1.7 3.34 0 3 C0 2.01 0 1.02 0 0 Z " fill="#AFB3B8" transform="translate(271,133)"/>
<path d="M0 0 C1.32 0 2.64 0 4 0 C4.36923077 7.50769231 4.36923077 7.50769231 2.5 10 C2.005 10.33 1.51 10.66 1 11 C0.67 10.01 0.34 9.02 0 8 C-2.97 7.505 -2.97 7.505 -6 7 C-6 6.34 -6 5.68 -6 5 C-4.35 4.67 -2.7 4.34 -1 4 C-0.67 2.68 -0.34 1.36 0 0 Z " fill="#EFEFF0" transform="translate(69,106)"/>
<path d="M0 0 C1.67542976 0.28604898 3.34385343 0.61781233 5 1 C5.625 3.375 5.625 3.375 6 6 C5.34 6.66 4.68 7.32 4 8 C1.375 7.625 1.375 7.625 -1 7 C-1.04254356 5.00045254 -1.04080783 2.99958364 -1 1 C-0.67 0.67 -0.34 0.34 0 0 Z " fill="#BBC2C9" transform="translate(35,482)"/>
<path d="M0 0 C2.64 0 5.28 0 8 0 C8 0.99 8 1.98 8 3 C6.68 3 5.36 3 4 3 C4 5.31 4 7.62 4 10 C4.66 10.33 5.32 10.66 6 11 C4.02 11 2.04 11 0 11 C0 7.37 0 3.74 0 0 Z " fill="#434D58" transform="translate(128,244)"/>
<path d="M0 0 C0 0.99 0 1.98 0 3 C-0.61875 3.061875 -1.2375 3.12375 -1.875 3.1875 C-4.27761141 3.828919 -4.27761141 3.828919 -5.25 6.5625 C-5.4975 7.366875 -5.745 8.17125 -6 9 C-6.33 8.34 -6.66 7.68 -7 7 C-7.66 7 -8.32 7 -9 7 C-9 4.69 -9 2.38 -9 0 C-5.52176885 -1.15941038 -3.54104422 -0.70820884 0 0 Z " fill="#EBECED" transform="translate(63,246)"/>
<path d="M0 0 C1.98 0 3.96 0 6 0 C5.01 0.495 5.01 0.495 4 1 C4 4.96 4 8.92 4 13 C4.66 13.33 5.32 13.66 6 14 C4.02 14 2.04 14 0 14 C0 9.38 0 4.76 0 0 Z " fill="#3C4752" transform="translate(90,241)"/>
<path d="M0 0 C1.67542976 0.28604898 3.34385343 0.61781233 5 1 C5.625 3.375 5.625 3.375 6 6 C5.34 6.66 4.68 7.32 4 8 C1.375 7.625 1.375 7.625 -1 7 C-1.04254356 5.00045254 -1.04080783 2.99958364 -1 1 C-0.67 0.67 -0.34 0.34 0 0 Z " fill="#D6D8DA" transform="translate(86,154)"/>
<path d="M0 0 C0 0.66 0 1.32 0 2 C-1.98 2 -3.96 2 -6 2 C-6 3.98 -6 5.96 -6 8 C-4.68 8.33 -3.36 8.66 -2 9 C-2 8.01 -2 7.02 -2 6 C-2.66 5.67 -3.32 5.34 -4 5 C-2.68 4.67 -1.36 4.34 0 4 C0.042721 5.66611905 0.04063832 7.33382885 0 9 C-1 10 -1 10 -3.9375 10.1875 C-7 10 -7 10 -9 8 C-9.375 5.0625 -9.375 5.0625 -9 2 C-6.09797328 -1.3319566 -4.08536588 -1.24830624 0 0 Z " fill="#C8CBCE" transform="translate(33,134)"/>
<path d="M0 0 C1.67542976 0.28604898 3.34385343 0.61781233 5 1 C5.625 3.375 5.625 3.375 6 6 C5.34 6.66 4.68 7.32 4 8 C1.375 7.625 1.375 7.625 -1 7 C-1.04254356 5.00045254 -1.04080783 2.99958364 -1 1 C-0.67 0.67 -0.34 0.34 0 0 Z " fill="#D6D8DA" transform="translate(224,136)"/>
<path d="M0 0 C1.67542976 0.28604898 3.34385343 0.61781233 5 1 C5.625 3.375 5.625 3.375 6 6 C5.34 6.66 4.68 7.32 4 8 C1.375 7.625 1.375 7.625 -1 7 C-1.04254356 5.00045254 -1.04080783 2.99958364 -1 1 C-0.67 0.67 -0.34 0.34 0 0 Z " fill="#D6D8DA" transform="translate(192,136)"/>
<path d="M0 0 C1.32 0 2.64 0 4 0 C4.33 4.95 4.66 9.9 5 15 C3.35 15 1.7 15 0 15 C0 10.05 0 5.1 0 0 Z " fill="#4A545E" transform="translate(228,100)"/>
<path d="M0 0 C1.98 0 3.96 0 6 0 C5.01 0.495 5.01 0.495 4 1 C4 4.96 4 8.92 4 13 C4.66 13.33 5.32 13.66 6 14 C4.02 14 2.04 14 0 14 C0 9.38 0 4.76 0 0 Z " fill="#EFF0F1" transform="translate(211,28)"/>
<path d="M0 0 C0.33 0.99 0.66 1.98 1 3 C1.99 3.33 2.98 3.66 4 4 C4 4.66 4 5.32 4 6 C2.35492782 6.19406478 0.70890406 6.38007935 -0.9375 6.5625 C-2.31228516 6.71912109 -2.31228516 6.71912109 -3.71484375 6.87890625 C-4.46894531 6.91886719 -5.22304687 6.95882813 -6 7 C-7 6 -7 6 -7.0625 3.4375 C-7.041875 2.633125 -7.02125 1.82875 -7 1 C-5.5459375 1.0309375 -5.5459375 1.0309375 -4.0625 1.0625 C-1.12534105 1.35618499 -1.12534105 1.35618499 0 0 Z " fill="#CDD2D7" transform="translate(100,386)"/>
<path d="M0 0 C0.66 0 1.32 0 2 0 C2 0.66 2 1.32 2 2 C2.66 2 3.32 2 4 2 C4 2.66 4 3.32 4 4 C3.34 4 2.68 4 2 4 C2 6.31 2 8.62 2 11 C2.66 11 3.32 11 4 11 C4 11.66 4 12.32 4 13 C2.35 12.67 0.7 12.34 -1 12 C-1.22162329 10.37675914 -1.42689803 8.751279 -1.625 7.125 C-1.74101562 6.22007812 -1.85703125 5.31515625 -1.9765625 4.3828125 C-1.98429688 3.59648437 -1.99203125 2.81015625 -2 2 C-1.34 1.34 -0.68 0.68 0 0 Z " fill="#3D4853" transform="translate(167,242)"/>
<path d="M0 0 C1.32 0 2.64 0 4 0 C4.625 2.875 4.625 2.875 5 6 C4.34 6.66 3.68 7.32 3 8 C0.375 7.625 0.375 7.625 -2 7 C-2.125 4.625 -2.125 4.625 -2 2 C-1.34 1.34 -0.68 0.68 0 0 Z " fill="#D4D7D9" transform="translate(185,154)"/>
<path d="M0 0 C1.32 0 2.64 0 4 0 C4.625 2.875 4.625 2.875 5 6 C4.34 6.66 3.68 7.32 3 8 C0.375 7.625 0.375 7.625 -2 7 C-2.125 4.625 -2.125 4.625 -2 2 C-1.34 1.34 -0.68 0.68 0 0 Z " fill="#D4D7D9" transform="translate(259,136)"/>
<path d="M0 0 C0.99 0 1.98 0 3 0 C3 1.32 3 2.64 3 4 C4.65 4.33 6.3 4.66 8 5 C8 7.31 8 9.62 8 12 C7.34 12 6.68 12 6 12 C6 9.69 6 7.38 6 5 C5.01 5.495 5.01 5.495 4 6 C3.34227572 9.02934491 3.34227572 9.02934491 3 12 C2.34 12 1.68 12 1 12 C0.67 8.04 0.34 4.08 0 0 Z " fill="#C7CACD" transform="translate(138,150)"/>
<path d="M0 0 C0 2.64 0 5.28 0 8 C-1.98 8 -3.96 8 -6 8 C-6 5.69 -6 3.38 -6 1 C-3.92446352 0.4465236 -2.15634036 0 0 0 Z " fill="#ECEDEE" transform="translate(138,246)"/>
<path d="M0 0 C1.32 0.33 2.64 0.66 4 1 C4.99 0.67 5.98 0.34 7 0 C7 0.99 7 1.98 7 3 C6.01 3 5.02 3 4 3 C4 5.31 4 7.62 4 10 C4.66 10.33 5.32 10.66 6 11 C4.02 11 2.04 11 0 11 C0 7.37 0 3.74 0 0 Z " fill="#38434E" transform="translate(269,104)"/>
<path d="M0 0 C1.32 0.33 2.64 0.66 4 1 C4.99 0.67 5.98 0.34 7 0 C7 0.99 7 1.98 7 3 C6.01 3 5.02 3 4 3 C4 5.31 4 7.62 4 10 C4.66 10.33 5.32 10.66 6 11 C4.02 11 2.04 11 0 11 C0 7.37 0 3.74 0 0 Z " fill="#38434E" transform="translate(167,104)"/>
<path d="M0 0 C1.32 0.33 2.64 0.66 4 1 C4.99 0.67 5.98 0.34 7 0 C7 0.99 7 1.98 7 3 C6.01 3 5.02 3 4 3 C4 5.31 4 7.62 4 10 C4.66 10.33 5.32 10.66 6 11 C4.02 11 2.04 11 0 11 C0 7.37 0 3.74 0 0 Z " fill="#38434E" transform="translate(131,104)"/>
<path d="M0 0 C1.98 0 3.96 0 6 0 C5.95875 1.093125 5.9175 2.18625 5.875 3.3125 C5.67925334 7.08892229 5.67925334 7.08892229 8 10 C8 11.32 8 12.64 8 14 C7.01 14 6.02 14 5 14 C4.72285156 13.15695313 4.44570312 12.31390625 4.16015625 11.4453125 C3.79792969 10.34960938 3.43570313 9.25390625 3.0625 8.125 C2.70285156 7.03445312 2.34320313 5.94390625 1.97265625 4.8203125 C1.10085926 2.09241318 1.10085926 2.09241318 0 0 Z " fill="#F2F3F4" transform="translate(229,28)"/>
<path d="M0 0 C1.4540625 0.0309375 1.4540625 0.0309375 2.9375 0.0625 C2.2775 1.7125 1.6175 3.3625 0.9375 5.0625 C-0.0525 5.0625 -1.0425 5.0625 -2.0625 5.0625 C-2.0625 5.7225 -2.0625 6.3825 -2.0625 7.0625 C-0.7425 7.3925 0.5775 7.7225 1.9375 8.0625 C0.2875 8.0625 -1.3625 8.0625 -3.0625 8.0625 C-3.3925 9.0525 -3.7225 10.0425 -4.0625 11.0625 C-4.08938151 9.41675434 -4.10884123 7.77088587 -4.125 6.125 C-4.13660156 5.20847656 -4.14820312 4.29195312 -4.16015625 3.34765625 C-4.00919455 -0.18484756 -3.60673121 0.07360676 0 0 Z " fill="#C6C9CC" transform="translate(111.0625,153.9375)"/>
<path d="M0 0 C0.66 0 1.32 0 2 0 C2 0.66 2 1.32 2 2 C2.99 2 3.98 2 5 2 C5 2.66 5 3.32 5 4 C4.01 4 3.02 4 2 4 C2 6.31 2 8.62 2 11 C2.99 11 3.98 11 5 11 C5 11.66 5 12.32 5 13 C3.35 13 1.7 13 0 13 C0 10.03 0 7.06 0 4 C-0.66 3.67 -1.32 3.34 -2 3 C-1.34 2.01 -0.68 1.02 0 0 Z " fill="#3E4954" transform="translate(245,102)"/>
<path d="M0 0 C0.99 0 1.98 0 3 0 C3.125 4.75 3.125 4.75 2 7 C2.60578253 9.01927511 3.26919734 11.02253397 4 13 C2.68 12.67 1.36 12.34 0 12 C-0.12375 11.195625 -0.2475 10.39125 -0.375 9.5625 C-0.684375 8.2940625 -0.684375 8.2940625 -1 7 C-1.66 6.67 -2.32 6.34 -3 6 C-2.34 5.67 -1.68 5.34 -1 5 C-0.34444881 2.47266765 -0.34444881 2.47266765 0 0 Z " fill="#F2F3F3" transform="translate(181,29)"/>
<path d="M0 0 C0.66 0 1.32 0 2 0 C2 0.99 2 1.98 2 3 C3.65 3.33 5.3 3.66 7 4 C7 6.31 7 8.62 7 11 C6.34 11 5.68 11 5 11 C5 8.69 5 6.38 5 4 C4.01 4 3.02 4 2 4 C2 6.31 2 8.62 2 11 C1.34 11 0.68 11 0 11 C0 7.37 0 3.74 0 0 Z " fill="#99A4AE" transform="translate(25,479)"/>
<path d="M0 0 C1.98 0 3.96 0 6 0 C6.33 2.64 6.66 5.28 7 8 C4.69 8 2.38 8 0 8 C0 5.36 0 2.72 0 0 Z " fill="#CCCFD2" transform="translate(211,154)"/>
<path d="M0 0 C3.875 1.875 3.875 1.875 5 3 C5.46596067 9.17397882 5.46596067 9.17397882 3.625 12.4375 C2 14 2 14 0 14 C0.165 13.484375 0.33 12.96875 0.5 12.4375 C1.38504441 8.12290849 1.39291284 4.17873852 0 0 Z " fill="#EFF0F1" transform="translate(150,28)"/>
<path d="M0 0 C1.65 0 3.3 0 5 0 C6 3 6 3 5 6 C5.33 6.99 5.66 7.98 6 9 C5.34 9 4.68 9 4 9 C3.67 7.68 3.34 6.36 3 5 C2.34 5 1.68 5 1 5 C1 6.32 1 7.64 1 9 C0.34 8.67 -0.32 8.34 -1 8 C-0.67 5.36 -0.34 2.72 0 0 Z " fill="#C6CACD" transform="translate(237,428)"/>
<path d="M0 0 C1.65 0 3.3 0 5 0 C6 3 6 3 5 6 C5.33 6.99 5.66 7.98 6 9 C5.34 9 4.68 9 4 9 C3.67 7.68 3.34 6.36 3 5 C2.34 5 1.68 5 1 5 C1 6.32 1 7.64 1 9 C0.34 8.67 -0.32 8.34 -1 8 C-0.67 5.36 -0.34 2.72 0 0 Z " fill="#C6CACD" transform="translate(238,332)"/>
<path d="M0 0 C1.32 0 2.64 0 4 0 C4 2.64 4 5.28 4 8 C2.35 7.67 0.7 7.34 -1 7 C-1.04254356 5.00045254 -1.04080783 2.99958364 -1 1 C-0.67 0.67 -0.34 0.34 0 0 Z " fill="#DDDFE1" transform="translate(234,154)"/>
<path d="M0 0 C1.65 0 3.3 0 5 0 C5.33 1.65 5.66 3.3 6 5 C2.77208445 7.1519437 1.71599191 7.20086443 -2 7 C-1.34 4.69 -0.68 2.38 0 0 Z " fill="#848B91" transform="translate(64,113)"/>
<path d="M0 0 C0.33 0 0.66 0 1 0 C1.125 6.625 1.125 6.625 0 10 C-1.65 9.67 -3.3 9.34 -5 9 C-4.67 7.35 -4.34 5.7 -4 4 C-2.68 3.67 -1.36 3.34 0 3 C0 2.01 0 1.02 0 0 Z " fill="#CACDD0" transform="translate(283,427)"/>
<path d="M0 0 C0.33 0 0.66 0 1 0 C1.125 6.625 1.125 6.625 0 10 C-1.65 9.67 -3.3 9.34 -5 9 C-4.67 7.35 -4.34 5.7 -4 4 C-2.68 3.67 -1.36 3.34 0 3 C0 2.01 0 1.02 0 0 Z " fill="#CACDD0" transform="translate(284,331)"/>
<path d="M0 0 C1.32 0 2.64 0 4 0 C4.33 3.63 4.66 7.26 5 11 C3.35 11 1.7 11 0 11 C0 7.37 0 3.74 0 0 Z " fill="#414C57" transform="translate(173,244)"/>
<path d="M0 0 C1.32 0 2.64 0 4 0 C4.33 3.63 4.66 7.26 5 11 C3.35 11 1.7 11 0 11 C0 7.37 0 3.74 0 0 Z " fill="#414C57" transform="translate(54,104)"/>
<path d="M0 0 C1.65 0.33 3.3 0.66 5 1 C5 3.31 5 5.62 5 8 C3.02 8 1.04 8 -1 8 C-1 6.68 -1 5.36 -1 4 C0.32 3.67 1.64 3.34 3 3 C3 2.34 3 1.68 3 1 C2.01 0.67 1.02 0.34 0 0 Z " fill="#A4ADB7" transform="translate(39,385)"/>
<path d="M0 0 C1.65 0.33 3.3 0.66 5 1 C5 3.31 5 5.62 5 8 C3.02 8 1.04 8 -1 8 C-1 6.68 -1 5.36 -1 4 C0.32 3.67 1.64 3.34 3 3 C3 2.34 3 1.68 3 1 C2.01 0.67 1.02 0.34 0 0 Z " fill="#A4ADB7" transform="translate(60,289)"/>
<path d="M0 0 C1.98 0 3.96 0 6 0 C6.66 2.31 7.32 4.62 8 7 C7.01 7.33 6.02 7.66 5 8 C5 5.69 5 3.38 5 1 C4.01 1.495 4.01 1.495 3 2 C2.34227572 5.02934491 2.34227572 5.02934491 2 8 C1.34 8 0.68 8 0 8 C0 5.36 0 2.72 0 0 Z " fill="#C2C6C9" transform="translate(162,154)"/>
<path d="M0 0 C1.98 0 3.96 0 6 0 C6.66 2.31 7.32 4.62 8 7 C7.01 7.33 6.02 7.66 5 8 C5 5.69 5 3.38 5 1 C4.01 1.495 4.01 1.495 3 2 C2.34227572 5.02934491 2.34227572 5.02934491 2 8 C1.34 8 0.68 8 0 8 C0 5.36 0 2.72 0 0 Z " fill="#C2C6C9" transform="translate(98,154)"/>
<path d="M0 0 C1.65 0.33 3.3 0.66 5 1 C5 3.31 5 5.62 5 8 C3.02 8 1.04 8 -1 8 C-1 6.68 -1 5.36 -1 4 C0.32 3.67 1.64 3.34 3 3 C3 2.34 3 1.68 3 1 C2.01 0.67 1.02 0.34 0 0 Z " fill="#C9CDCF" transform="translate(84,136)"/>
<path d="M0 0 C0.33 0 0.66 0 1 0 C1 2.64 1 5.28 1 8 C-1.83967231 8 -4.23735711 7.59732819 -7 7 C-7 6.01 -7 5.02 -7 4 C-5.35 4 -3.7 4 -2 4 C-1.67 3.01 -1.34 2.02 -1 1 C-0.67 0.67 -0.34 0.34 0 0 Z " fill="#EEEFF0" transform="translate(269,106)"/>
<path d="M0 0 C1.65 0 3.3 0 5 0 C5 2.64 5 5.28 5 8 C3.35 7.67 1.7 7.34 0 7 C0 4.69 0 2.38 0 0 Z " fill="#EEEFF0" transform="translate(247,106)"/>
<path d="M0 0 C0.33 2.64 0.66 5.28 1 8 C-1.97 7.505 -1.97 7.505 -5 7 C-5 5.02 -5 3.04 -5 1 C-3 0 -3 0 0 0 Z " fill="#CCCFD2" transform="translate(170,136)"/>
<path d="M0 0 C0.66 0 1.32 0 2 0 C2.33 2.64 2.66 5.28 3 8 C0.36 8 -2.28 8 -5 8 C-5.33 6.35 -5.66 4.7 -6 3 C-5.34 3 -4.68 3 -4 3 C-4 3.99 -4 4.98 -4 6 C-2.68 6 -1.36 6 0 6 C0 4.02 0 2.04 0 0 Z " fill="#37434E" transform="translate(64,247)"/>
<path d="M0 0 C1.32 0.33 2.64 0.66 4 1 C4 3.31 4 5.62 4 8 C2.68 8 1.36 8 0 8 C0 5.36 0 2.72 0 0 Z " fill="#D2D4D7" transform="translate(101,246)"/>
<path d="M0 0 C1.32 0.33 2.64 0.66 4 1 C4 3.31 4 5.62 4 8 C2.68 8 1.36 8 0 8 C0 5.36 0 2.72 0 0 Z " fill="#D2D4D7" transform="translate(42,246)"/>
<path d="M0 0 C1.32 0.33 2.64 0.66 4 1 C4 3.31 4 5.62 4 8 C2.68 8 1.36 8 0 8 C0 5.36 0 2.72 0 0 Z " fill="#D2D4D7" transform="translate(184,106)"/>
<path d="M0 0 C2.64 0 5.28 0 8 0 C8 0.66 8 1.32 8 2 C7.34 2 6.68 2 6 2 C5.67 3.32 5.34 4.64 5 6 C3.35 5.67 1.7 5.34 0 5 C0 3.35 0 1.7 0 0 Z " fill="#7D858B" transform="translate(63,104)"/>
<path d="M0 0 C1.98 0 3.96 0 6 0 C6 3.3 6 6.6 6 10 C5.34 10 4.68 10 4 10 C2.68 6.7 1.36 3.4 0 0 Z " fill="#EEEEF0" transform="translate(197,28)"/>
<path d="M0 0 C2.5 0.125 2.5 0.125 3.5 1.125 C3.73287008 2.80683948 3.91264166 4.4962416 4.0625 6.1875 C4.14628906 7.10660156 4.23007813 8.02570313 4.31640625 8.97265625 C4.37699219 9.68292969 4.43757812 10.39320313 4.5 11.125 C3.51 11.125 2.52 11.125 1.5 11.125 C1.37625 9.206875 1.37625 9.206875 1.25 7.25 C1.04130069 5.07166582 1.04130069 5.07166582 0.5 3.125 C-1.42064793 1.5350567 -1.42064793 1.5350567 -3.5 1.125 C-2.5 0.125 -2.5 0.125 0 0 Z " fill="#37424E" transform="translate(159.5,243.875)"/>
<path d="M0 0 C0.99 0 1.98 0 3 0 C3 3.3 3 6.6 3 10 C2.34 10 1.68 10 1 10 C1 9.01 1 8.02 1 7 C-1.64 7 -4.28 7 -7 7 C-5.35 5.35 -3.7 3.7 -2 2 C-1.67 3.32 -1.34 4.64 -1 6 C-0.34 5.67 0.32 5.34 1 5 C1.65213292 2.97536745 1.65213292 2.97536745 2 1 C1.34 0.67 0.68 0.34 0 0 Z " fill="#BFC3C6" transform="translate(252,430)"/>
<path d="M0 0 C0.99 0 1.98 0 3 0 C3 3.3 3 6.6 3 10 C2.34 10 1.68 10 1 10 C1 9.01 1 8.02 1 7 C-1.64 7 -4.28 7 -7 7 C-5.35 5.35 -3.7 3.7 -2 2 C-1.67 3.32 -1.34 4.64 -1 6 C-0.34 5.67 0.32 5.34 1 5 C1.65213292 2.97536745 1.65213292 2.97536745 2 1 C1.34 0.67 0.68 0.34 0 0 Z " fill="#BFC3C6" transform="translate(253,334)"/>
<path d="M0 0 C0.33 2.97 0.66 5.94 1 9 C-0.65 8.67 -2.3 8.34 -4 8 C-4 5.69 -4 3.38 -4 1 C-1 0 -1 0 0 0 Z " fill="#F4F4F5" transform="translate(259,105)"/>
<path d="M0 0 C2 2 2 2 2.1953125 4.8203125 C2.16050781 6.45613281 2.16050781 6.45613281 2.125 8.125 C2.10695313 9.22070312 2.08890625 10.31640625 2.0703125 11.4453125 C2.04710938 12.28835937 2.02390625 13.13140625 2 14 C1.67 12.68 1.34 11.36 1 10 C0.34 10 -0.32 10 -1 10 C-1.02689216 8.52093108 -1.04634621 7.04172517 -1.0625 5.5625 C-1.07410156 4.73878906 -1.08570312 3.91507812 -1.09765625 3.06640625 C-1 1 -1 1 0 0 Z " fill="#DCDEE0" transform="translate(95,104)"/>
<path d="M0 0 C0.66 0.33 1.32 0.66 2 1 C2 3.31 2 5.62 2 8 C2.99 8 3.98 8 5 8 C5 8.66 5 9.32 5 10 C2.625 10.1875 2.625 10.1875 0 10 C-2.14915785 6.77626323 -2.38286803 5.73296326 -2 2 C-1.34 1.34 -0.68 0.68 0 0 Z " fill="#3B4751" transform="translate(181,245)"/>
<path d="M0 0 C0.66 0.33 1.32 0.66 2 1 C2 3.31 2 5.62 2 8 C2.99 8 3.98 8 5 8 C5 8.66 5 9.32 5 10 C2.625 10.1875 2.625 10.1875 0 10 C-2.14915785 6.77626323 -2.38286803 5.73296326 -2 2 C-1.34 1.34 -0.68 0.68 0 0 Z " fill="#3B4751" transform="translate(119,245)"/>
<path d="M0 0 C0.66 0.33 1.32 0.66 2 1 C2 3.31 2 5.62 2 8 C2.99 8 3.98 8 5 8 C5 8.66 5 9.32 5 10 C2.625 10.1875 2.625 10.1875 0 10 C-2.14915785 6.77626323 -2.38286803 5.73296326 -2 2 C-1.34 1.34 -0.68 0.68 0 0 Z " fill="#3B4751" transform="translate(29,245)"/>
<path d="M0 0 C0.66 0.33 1.32 0.66 2 1 C2 3.31 2 5.62 2 8 C2.99 8 3.98 8 5 8 C5 8.66 5 9.32 5 10 C2.625 10.1875 2.625 10.1875 0 10 C-2.14915785 6.77626323 -2.38286803 5.73296326 -2 2 C-1.34 1.34 -0.68 0.68 0 0 Z " fill="#3B4751" transform="translate(146,105)"/>
<path d="M0 0 C1.32 0.33 2.64 0.66 4 1 C4 2.98 4 4.96 4 7 C2.68 7 1.36 7 0 7 C0 4.69 0 2.38 0 0 Z " fill="#DCDEE0" transform="translate(182,246)"/>
<path d="M0 0 C1.32 0.33 2.64 0.66 4 1 C4 2.98 4 4.96 4 7 C2.68 7 1.36 7 0 7 C0 4.69 0 2.38 0 0 Z " fill="#DCDEE0" transform="translate(120,246)"/>
<path d="M0 0 C1.32 0.33 2.64 0.66 4 1 C4 2.98 4 4.96 4 7 C2.68 7 1.36 7 0 7 C0 4.69 0 2.38 0 0 Z " fill="#DCDEE0" transform="translate(30,246)"/>
<path d="M0 0 C0 1.32 0 2.64 0 4 C-0.99 3.67 -1.98 3.34 -3 3 C-3 2.34 -3 1.68 -3 1 C-3.99 1.33 -4.98 1.66 -6 2 C-6.33 4.64 -6.66 7.28 -7 10 C-7.33 10 -7.66 10 -8 10 C-8.54372951 6.94152152 -9 4.11227195 -9 1 C-6.04335481 -0.4783226 -3.25770263 -0.06032783 0 0 Z " fill="#59636C" transform="translate(26,241)"/>
<path d="M0 0 C1.32 0.33 2.64 0.66 4 1 C3.67 3.31 3.34 5.62 3 8 C2.01 8 1.02 8 0 8 C0 5.36 0 2.72 0 0 Z " fill="#D6D8DB" transform="translate(99,106)"/>
<path d="M0 0 C1.32 0.33 2.64 0.66 4 1 C4 2.98 4 4.96 4 7 C2.68 7 1.36 7 0 7 C0 4.69 0 2.38 0 0 Z " fill="#DCDEE0" transform="translate(147,106)"/>
<path d="M0 0 C1.32 0 2.64 0 4 0 C4.33 1.32 4.66 2.64 5 4 C3.35 4 1.7 4 0 4 C-0.33 4.99 -0.66 5.98 -1 7 C-1.625 4.625 -1.625 4.625 -2 2 C-1.34 1.34 -0.68 0.68 0 0 Z " fill="#A6B0B9" transform="translate(82,289)"/>
<path d="M0 0 C1.32 0 2.64 0 4 0 C4.33 1.32 4.66 2.64 5 4 C3.35 4 1.7 4 0 4 C-0.33 4.99 -0.66 5.98 -1 7 C-1.625 4.625 -1.625 4.625 -2 2 C-1.34 1.34 -0.68 0.68 0 0 Z " fill="#CACDD0" transform="translate(98,136)"/>
<path d="M0 0 C1.32 0.33 2.64 0.66 4 1 C4 3.97 4 6.94 4 10 C4.66 10.33 5.32 10.66 6 11 C4.35 11 2.7 11 1 11 C1.03255208 9.01432292 1.06510417 7.02864583 1.09765625 5.04296875 C1.08263217 2.79694539 1.08263217 2.79694539 0 0 Z " fill="#35414C" transform="translate(186,104)"/>
<path d="M0 0 C0.99 0 1.98 0 3 0 C3 3.3 3 6.6 3 10 C3.66 10.33 4.32 10.66 5 11 C3.35 11 1.7 11 0 11 C0 7.37 0 3.74 0 0 Z " fill="#333E4A" transform="translate(190,244)"/>
<path d="M0 0 C0.99 0 1.98 0 3 0 C3 3.3 3 6.6 3 10 C3.66 10.33 4.32 10.66 5 11 C3.35 11 1.7 11 0 11 C0 7.37 0 3.74 0 0 Z " fill="#333E4A" transform="translate(137,244)"/>
<path d="M0 0 C0.99 0 1.98 0 3 0 C3 3.3 3 6.6 3 10 C3.66 10.33 4.32 10.66 5 11 C3.35 11 1.7 11 0 11 C0 7.37 0 3.74 0 0 Z " fill="#333E4A" transform="translate(72,104)"/>
<path d="M0 0 C1.65 0 3.3 0 5 0 C5 1.65 5 3.3 5 5 C3.0625 5.5625 3.0625 5.5625 1 6 C0 5 0 5 -0.0625 2.4375 C-0.041875 1.633125 -0.02125 0.82875 0 0 Z " fill="#39444F" transform="translate(90,36)"/>
<path d="M0 0 C0.66 0 1.32 0 2 0 C2.66 1.65 3.32 3.3 4 5 C3.67 5 3.34 5 3 5 C2.67 6.98 2.34 8.96 2 11 C1.34 11 0.68 11 0 11 C0 7.37 0 3.74 0 0 Z " fill="#A6AFB8" transform="translate(48,286)"/>
<path d="M0 0 C2.475 0.495 2.475 0.495 5 1 C5.1875 3.875 5.1875 3.875 5 7 C4.01 7.66 3.02 8.32 2 9 C1.855625 7.88625 1.71125 6.7725 1.5625 5.625 C1.21627965 2.17857953 1.21627965 2.17857953 0 0 Z " fill="#404B55" transform="translate(101,105)"/>
<path d="M0 0 C0.99 0.33 1.98 0.66 3 1 C2.67 3.64 2.34 6.28 2 9 C1.34 9 0.68 9 0 9 C-0.87890625 2.84765625 -0.87890625 2.84765625 -1 1 C-0.67 0.67 -0.34 0.34 0 0 Z " fill="#444F59" transform="translate(242,28)"/>
<path d="M0 0 C0.99 0 1.98 0 3 0 C3 2.64 3 5.28 3 8 C2.01 8 1.02 8 0 8 C0 5.36 0 2.72 0 0 Z " fill="#F6F7F7" transform="translate(147,246)"/>
<path d="M0 0 C0 0.99 0 1.98 0 3 C-1.98 2.34 -3.96 1.68 -6 1 C-6 3.64 -6 6.28 -6 9 C-6.33 9 -6.66 9 -7 9 C-7 6.03 -7 3.06 -7 0 C-4.3333581 -1.33332095 -2.83319697 -0.67102033 0 0 Z " fill="#47515B" transform="translate(200,245)"/>
<path d="M0 0 C0.99 0 1.98 0 3 0 C3 2.64 3 5.28 3 8 C2.01 8 1.02 8 0 8 C0 5.36 0 2.72 0 0 Z " fill="#F7F7F8" transform="translate(141,246)"/>
<path d="M0 0 C0.99 0 1.98 0 3 0 C3.33 3.3 3.66 6.6 4 10 C2.68 9.67 1.36 9.34 0 9 C0 6.03 0 3.06 0 0 Z " fill="#2F3B47" transform="translate(104,245)"/>
<path d="M0 0 C0 1.32 0 2.64 0 4 C-0.66 4 -1.32 4 -2 4 C-2 3.34 -2 2.68 -2 2 C-4.62187494 3.04874998 -5.79371361 3.64931313 -7.25 6.125 C-7.4975 6.74375 -7.745 7.3625 -8 8 C-8.36075949 3.55063291 -8.36075949 3.55063291 -6.8125 1.1875 C-4.44017475 -0.36678206 -2.77958655 -0.22537188 0 0 Z " fill="#545D67" transform="translate(76,244)"/>
<path d="M0 0 C0.99 0 1.98 0 3 0 C3 2.31 3 4.62 3 7 C1.68 6.67 0.36 6.34 -1 6 C-1.042721 4.33388095 -1.04063832 2.66617115 -1 1 C-0.67 0.67 -0.34 0.34 0 0 Z " fill="#F5F6F7" transform="translate(79,155)"/>
<path d="M0 0 C0 0.99 0 1.98 0 3 C-1.98 2.34 -3.96 1.68 -6 1 C-6 3.64 -6 6.28 -6 9 C-6.33 9 -6.66 9 -7 9 C-7 6.03 -7 3.06 -7 0 C-4.3333581 -1.33332095 -2.83319697 -0.67102033 0 0 Z " fill="#47515B" transform="translate(82,105)"/>
<path d="M0 0 C1.65 0 3.3 0 5 0 C4.67 1.65 4.34 3.3 4 5 C1.03 4.505 1.03 4.505 -2 4 C-1.34 2.68 -0.68 1.36 0 0 Z " fill="#888E95" transform="translate(261,104)"/>
<path d="M0 0 C1.65 0 3.3 0 5 0 C4.67 1.65 4.34 3.3 4 5 C1.03 4.505 1.03 4.505 -2 4 C-1.34 2.68 -0.68 1.36 0 0 Z " fill="#888E95" transform="translate(236,104)"/>
<path d="M0 0 C1.32 0 2.64 0 4 0 C3.01 3.3 2.02 6.6 1 10 C0.34 9.67 -0.32 9.34 -1 9 C-0.67 6.03 -0.34 3.06 0 0 Z " fill="#626B73" transform="translate(214,104)"/>
<path d="M0 0 C1.65 0 3.3 0 5 0 C4.67 1.65 4.34 3.3 4 5 C1.03 4.505 1.03 4.505 -2 4 C-1.34 2.68 -0.68 1.36 0 0 Z " fill="#888E95" transform="translate(195,104)"/>
<path d="M0 0 C1.32 0.33 2.64 0.66 4 1 C3.625 3.9375 3.625 3.9375 3 7 C2.01 7.495 2.01 7.495 1 8 C-0.35439668 5.29120665 -0.06501451 2.99066732 0 0 Z " fill="#444F59" transform="translate(234,29)"/>
<path d="M0 0 C0.99 0 1.98 0 3 0 C2.67 1.32 2.34 2.64 2 4 C1.34 4 0.68 4 0 4 C0 4.66 0 5.32 0 6 C0.66 6.33 1.32 6.66 2 7 C0.68 6.67 -0.64 6.34 -2 6 C-1.125 1.125 -1.125 1.125 0 0 Z " fill="#C6C9CC" transform="translate(274,430)"/>
<path d="M0 0 C0.99 0 1.98 0 3 0 C2.67 1.32 2.34 2.64 2 4 C1.34 4 0.68 4 0 4 C0 4.66 0 5.32 0 6 C0.66 6.33 1.32 6.66 2 7 C0.68 6.67 -0.64 6.34 -2 6 C-1.125 1.125 -1.125 1.125 0 0 Z " fill="#C6C9CC" transform="translate(275,334)"/>
<path d="M0 0 C2.31 0 4.62 0 7 0 C6.01 0.495 6.01 0.495 5 1 C5 1.99 5 2.98 5 4 C3.02 4 1.04 4 -1 4 C-0.67 2.68 -0.34 1.36 0 0 Z " fill="#D3D6D8" transform="translate(131,154)"/>
<path d="M0 0 C1.98 0 3.96 0 6 0 C6 0.99 6 1.98 6 3 C4.02 3.33 2.04 3.66 0 4 C0 2.68 0 1.36 0 0 Z " fill="#E2E4E5" transform="translate(108,162)"/>
<path d="M0 0 C1.98 0 3.96 0 6 0 C5.34 0.66 4.68 1.32 4 2 C3.83318891 5.08347826 3.83318891 5.08347826 4 8 C3.01 8 2.02 8 1 8 C0.67 5.36 0.34 2.72 0 0 Z " fill="#C3C6C9" transform="translate(119,154)"/>
<path d="M0 0 C0.99 0 1.98 0 3 0 C3 1.98 3 3.96 3 6 C1.68 5.67 0.36 5.34 -1 5 C-0.67 3.35 -0.34 1.7 0 0 Z " fill="#FDFDFD" transform="translate(268,137)"/>
<path d="M0 0 C0.99 0 1.98 0 3 0 C3 2.31 3 4.62 3 7 C2.01 7 1.02 7 0 7 C0 4.69 0 2.38 0 0 Z " fill="#FAFAFB" transform="translate(123,106)"/>
<path d="M0 0 C0.99 0.33 1.98 0.66 3 1 C3 3.31 3 5.62 3 8 C2.01 8 1.02 8 0 8 C0 5.36 0 2.72 0 0 Z " fill="#F6F6F7" transform="translate(159,105)"/>
<path d="M0 0 C0.99 0.33 1.98 0.66 3 1 C3 3.31 3 5.62 3 8 C2.01 8 1.02 8 0 8 C0 5.36 0 2.72 0 0 Z " fill="#F6F6F7" transform="translate(88,105)"/>
<path d="M0 0 C1.65 0 3.3 0 5 0 C4.34 0.66 3.68 1.32 3 2 C2.83318891 5.08347826 2.83318891 5.08347826 3 8 C2.01 8 1.02 8 0 8 C0 5.36 0 2.72 0 0 Z " fill="#9CA6B0" transform="translate(87,385)"/>
<path d="M0 0 C0.99 0 1.98 0 3 0 C3 1.98 3 3.96 3 6 C1.68 5.67 0.36 5.34 -1 5 C-0.67 3.35 -0.34 1.7 0 0 Z " fill="#F7F8F9" transform="translate(71,386)"/>
<path d="M0 0 C0.33 0.66 0.66 1.32 1 2 C1.66 2.33 2.32 2.66 3 3 C2.34 3 1.68 3 1 3 C1 4.98 1 6.96 1 9 C1.66 9.33 2.32 9.66 3 10 C1.68 9.67 0.36 9.34 -1 9 C-1.125 2.25 -1.125 2.25 0 0 Z " fill="#BDC1C4" transform="translate(149,152)"/>
<path d="M0 0 C0.33 0.66 0.66 1.32 1 2 C1.66 2.33 2.32 2.66 3 3 C2.34 3 1.68 3 1 3 C1 4.98 1 6.96 1 9 C1.66 9.33 2.32 9.66 3 10 C1.68 9.67 0.36 9.34 -1 9 C-1.125 2.25 -1.125 2.25 0 0 Z " fill="#BDC1C4" transform="translate(112,134)"/>
<path d="M0 0 C0.33 0.66 0.66 1.32 1 2 C1.66 2.33 2.32 2.66 3 3 C2.34 3 1.68 3 1 3 C1 4.98 1 6.96 1 9 C1.66 9.33 2.32 9.66 3 10 C1.68 9.67 0.36 9.34 -1 9 C-1.125 2.25 -1.125 2.25 0 0 Z " fill="#BDC1C4" transform="translate(92,134)"/>
<path d="M0 0 C0.33 0.66 0.66 1.32 1 2 C1.66 2.33 2.32 2.66 3 3 C2.34 3 1.68 3 1 3 C1 4.98 1 6.96 1 9 C1.66 9.33 2.32 9.66 3 10 C1.68 9.67 0.36 9.34 -1 9 C-1.125 2.25 -1.125 2.25 0 0 Z " fill="#BDC1C4" transform="translate(53,134)"/>
<path d="M0 0 C0.33 0.66 0.66 1.32 1 2 C1.99 2 2.98 2 4 2 C4.33 1.34 4.66 0.68 5 0 C5 0.99 5 1.98 5 3 C3.68 3 2.36 3 1 3 C1 3.99 1 4.98 1 6 C2.32 6.33 3.64 6.66 5 7 C3.35 7 1.7 7 0 7 C-0.38133299 5.0085944 -0.71325582 3.00720923 -1 1 C-0.67 0.67 -0.34 0.34 0 0 Z " fill="#B8BCC0" transform="translate(275,137)"/>
<path d="M0 0 C1.32 0.33 2.64 0.66 4 1 C4 3.31 4 5.62 4 8 C3.34 7.01 2.68 6.02 2 5 C1.34 5 0.68 5 0 5 C0 3.35 0 1.7 0 0 Z " fill="#555E68" transform="translate(223,29)"/>
<path d="M0 0 C0.66 0.33 1.32 0.66 2 1 C1.34 2.98 0.68 4.96 0 7 C-0.66 7 -1.32 7 -2 7 C-2.33 5.35 -2.66 3.7 -3 2 C-2.01 1.34 -1.02 0.68 0 0 Z " fill="#DEE0E1" transform="translate(180,154)"/>
<path d="M0 0 C2.97 0.495 2.97 0.495 6 1 C6 1.33 6 1.66 6 2 C4.35 2 2.7 2 1 2 C1.33 3.32 1.66 4.64 2 6 C0.68 5.67 -0.64 5.34 -2 5 C-1.34 3.35 -0.68 1.7 0 0 Z " fill="#323E49" transform="translate(62,113)"/>
<path d="M0 0 C0.33 0 0.66 0 1 0 C1.433125 1.423125 1.433125 1.423125 1.875 2.875 C2.76825109 6.05211578 2.76825109 6.05211578 5 8 C0.125 7.125 0.125 7.125 -1 6 C-1.125 3.5 -1.125 3.5 -1 1 C-0.67 0.67 -0.34 0.34 0 0 Z " fill="#343F4B" transform="translate(121,107)"/>
<path d="M0 0 C2.475 0.99 2.475 0.99 5 2 C4.67 2.99 4.34 3.98 4 5 C2.68 5 1.36 5 0 5 C0 3.35 0 1.7 0 0 Z " fill="#424D57" transform="translate(191,36)"/>
<path d="M0 0 C2.475 0.99 2.475 0.99 5 2 C4.67 2.99 4.34 3.98 4 5 C2.68 5 1.36 5 0 5 C0 3.35 0 1.7 0 0 Z " fill="#424D57" transform="translate(161,36)"/>
<path d="M0 0 C2.475 0.99 2.475 0.99 5 2 C4.67 2.99 4.34 3.98 4 5 C2.68 5 1.36 5 0 5 C0 3.35 0 1.7 0 0 Z " fill="#424D57" transform="translate(105,36)"/>
<path d="M0 0 C1.32 0.33 2.64 0.66 4 1 C3.67 2.32 3.34 3.64 3 5 C2.01 5 1.02 5 0 5 C0 3.35 0 1.7 0 0 Z " fill="#F9FAFA" transform="translate(18,480)"/>
<path d="M0 0 C0.99 0 1.98 0 3 0 C2.67 1.32 2.34 2.64 2 4 C1.01 4 0.02 4 -1 4 C-1.33 4.66 -1.66 5.32 -2 6 C-1.125 1.125 -1.125 1.125 0 0 Z " fill="#C5C8CB" transform="translate(246,430)"/>
<path d="M0 0 C0.99 0 1.98 0 3 0 C2.67 1.32 2.34 2.64 2 4 C1.01 4 0.02 4 -1 4 C-1.33 4.66 -1.66 5.32 -2 6 C-1.125 1.125 -1.125 1.125 0 0 Z " fill="#C5C8CB" transform="translate(247,334)"/>
<path d="M0 0 C0.99 0 1.98 0 3 0 C3 1.98 3 3.96 3 6 C2.01 6 1.02 6 0 6 C0 4.02 0 2.04 0 0 Z " fill="#FDFDFD" transform="translate(226,155)"/>
<path d="M0 0 C2.125 0.9375 2.125 0.9375 4 2 C3.67 2.99 3.34 3.98 3 5 C2.01 5 1.02 5 0 5 C0 4.01 0 3.02 0 2 C-0.66 1.67 -1.32 1.34 -2 1 C-1.34 0.67 -0.68 0.34 0 0 Z " fill="#EAEBEC" transform="translate(46,109)"/>
<path d="M0 0 C1.65 0 3.3 0 5 0 C3.02 0.99 3.02 0.99 1 2 C1 3.98 1 5.96 1 8 C0.01 6.68 -0.98 5.36 -2 4 C-1.34 2.68 -0.68 1.36 0 0 Z " fill="#5C656E" transform="translate(122,104)"/>
<path d="M0 0 C0.66 0 1.32 0 2 0 C2 1.98 2 3.96 2 6 C1.01 6 0.02 6 -1 6 C-1.042721 4.33388095 -1.04063832 2.66617115 -1 1 C-0.67 0.67 -0.34 0.34 0 0 Z " fill="#C1C8CE" transform="translate(63,383)"/>
<path d="M0 0 C1.65 0 3.3 0 5 0 C5 1.32 5 2.64 5 4 C3.68 4 2.36 4 1 4 C0.67 2.68 0.34 1.36 0 0 Z " fill="#8E949A" transform="translate(59,249)"/>
<path d="M0 0 C2.64 0 5.28 0 8 0 C8 0.99 8 1.98 8 3 C6.35 3 4.7 3 3 3 C3 2.34 3 1.68 3 1 C2.01 1.33 1.02 1.66 0 2 C0 1.34 0 0.68 0 0 Z " fill="#545E67" transform="translate(128,244)"/>
<path d="M0 0 C0.66 0.66 1.32 1.32 2 2 C1.625 5.125 1.625 5.125 1 8 C0.01 7.67 -0.98 7.34 -2 7 C-2 6.01 -2 5.02 -2 4 C-1.34 4 -0.68 4 0 4 C0 2.68 0 1.36 0 0 Z " fill="#747C83" transform="translate(208,105)"/>
<path d="M0 0 C0.33 0 0.66 0 1 0 C1 2.64 1 5.28 1 8 C0.01 8.495 0.01 8.495 -1 9 C-1.625 5.625 -1.625 5.625 -2 2 C-1.34 1.34 -0.68 0.68 0 0 Z " fill="#E4E6E7" transform="translate(131,106)"/>
</svg>
