<?xml version="1.0" encoding="UTF-8"?>
<svg version="1.1" xmlns="http://www.w3.org/2000/svg" width="700" height="394">
<path d="M0 0 C1.71164613 -0.00701996 1.71164613 -0.00701996 3.45787096 -0.01418173 C7.24836178 -0.02606469 11.03848655 -0.01670054 14.82897949 -0.00723267 C17.56002033 -0.00965231 20.29104604 -0.01653716 23.02207947 -0.02316284 C29.64996913 -0.0364527 36.27775646 -0.03364373 42.90565002 -0.02492492 C48.29571548 -0.01812999 53.6857524 -0.01723945 59.07582092 -0.02049637 C59.84505616 -0.02095607 60.61429139 -0.02141577 61.40683678 -0.0218894 C62.9698726 -0.02284864 64.53290842 -0.02382128 66.09594423 -0.02480717 C80.72793704 -0.03334715 95.35987333 -0.02354883 109.99185687 -0.00740607 C122.52727369 0.00599585 135.06260715 0.00366736 147.59802246 -0.01016235 C162.1802169 -0.02624281 176.76236189 -0.03252331 191.34456396 -0.02332556 C192.9016199 -0.02236999 194.45867585 -0.02142687 196.01573181 -0.02049637 C197.16466936 -0.01980213 197.16466936 -0.01980213 198.33681777 -0.01909386 C203.71593611 -0.01651136 209.0950229 -0.02085895 214.47413635 -0.02793503 C221.03589415 -0.03637769 227.59754437 -0.03401206 234.15928996 -0.0180928 C237.50265155 -0.01024698 240.84568715 -0.00868917 244.18906975 -0.01704025 C247.82340725 -0.02527903 251.45724667 -0.01490534 255.09155273 0 C256.6552053 -0.01003825 256.6552053 -0.01003825 258.2504468 -0.02027929 C275.48734349 0.11615731 290.35187191 6.61233748 302.48718262 18.68563843 C315.89952236 32.81466808 320.20236498 49.33123167 320.18621826 68.41000366 C320.19067495 70.06306393 320.19067495 70.06306393 320.19522166 71.74951935 C320.20388483 75.43786885 320.20541491 79.12618581 320.20690918 82.81454468 C320.2115391 85.46115775 320.21654374 88.10776791 320.22195435 90.75437927 C320.2355081 97.94275751 320.24155803 105.13113015 320.245965 112.31951904 C320.24873296 116.8137931 320.25297136 121.30806503 320.25746918 125.80233765 C320.26965896 138.26179875 320.27995821 150.72125816 320.28334427 163.1807251 C320.28356383 163.97742847 320.2837834 164.77413184 320.28400962 165.59497774 C320.2842279 166.39352005 320.28444618 167.19206237 320.28467107 168.01480293 C320.28511452 169.63278325 320.28556109 171.25076358 320.28601074 172.8687439 C320.28623217 173.67130733 320.2864536 174.47387077 320.28668174 175.30075431 C320.29062571 188.29115322 320.30806877 201.2814959 320.33137026 214.27187312 C320.3551367 227.63004597 320.36754856 240.98819068 320.36871219 254.346385 C320.36962608 261.83790845 320.37530592 269.32935865 320.3935318 276.82086182 C320.40900455 283.20294679 320.41401134 289.58493588 320.4057937 295.96703607 C320.4019121 299.21755311 320.40435734 302.46783907 320.41685104 305.71833992 C320.53516516 338.43399294 320.53516516 338.43399294 313.54577637 351.56845093 C313.20393311 352.22643677 312.86208984 352.88442261 312.5098877 353.56234741 C304.46571283 368.27878086 291.06842249 378.480554 275.04577637 383.38095093 C267.10171898 385.03355956 259.41366159 385.67479392 251.31451416 385.65942383 C250.19761837 385.66521623 249.08072258 385.67100863 247.92998147 385.67697656 C244.22213044 385.69385617 240.51440478 385.69684265 236.80651855 385.69979858 C234.13482471 385.70910508 231.46314425 385.71918887 228.79145813 385.73023987 C223.05728426 385.75242036 217.32312796 385.76748875 211.58892059 385.77760696 C203.29841674 385.79224632 195.00797415 385.81779757 186.71750644 385.84593825 C173.26395775 385.89131118 159.8104002 385.92796507 146.35681152 385.95907593 C133.29462123 385.9893005 120.23245257 386.02366862 107.17028809 386.06356812 C105.96080341 386.06726044 105.96080341 386.06726044 104.72688469 386.07102735 C100.68144879 386.08340271 96.63601314 386.0958591 92.5905776 386.10835576 C59.07567331 386.2117812 25.56074492 386.3010312 -7.95422363 386.38095093 C-7.95422363 385.72095093 -7.95422363 385.06095093 -7.95422363 384.38095093 C-8.96484863 384.46345093 -9.97547363 384.54595093 -11.01672363 384.63095093 C-17.89802587 384.63095093 -27.95387876 383.08072458 -33.13781738 378.41610718 C-33.73723145 377.74450562 -34.33664551 377.07290405 -34.95422363 376.38095093 C-36.36714049 375.40679568 -37.8057391 374.46891564 -39.26672363 373.56845093 C-46.8674425 368.58437298 -52.52536817 362.3464016 -56.95422363 354.38095093 C-56.95422363 353.72095093 -56.95422363 353.06095093 -56.95422363 352.38095093 C-57.61422363 352.05095093 -58.27422363 351.72095093 -58.95422363 351.38095093 C-63.67060834 339.98302122 -65.10084285 329.35883096 -65.11244202 317.13070679 C-65.11737999 316.0172287 -65.12231797 314.90375061 -65.12740558 313.75653076 C-65.14272822 310.03628685 -65.15112702 306.31606013 -65.1595459 302.59579468 C-65.16912854 299.92469537 -65.17909614 297.25360007 -65.18954468 294.58250427 C-65.21125241 288.83734854 -65.2294176 283.09219047 -65.24514961 277.34701538 C-65.26790039 269.04054456 -65.29603587 260.73409877 -65.32546889 252.42764926 C-65.37308112 238.94969189 -65.41636247 225.47172424 -65.45690918 211.9937439 C-65.49629657 198.90421755 -65.53773053 185.8147003 -65.58190918 172.72518921 C-65.58463345 171.9178152 -65.58735772 171.11044118 -65.59016455 170.27860129 C-65.60384456 166.22808294 -65.61756473 162.17756473 -65.63130486 158.12704659 C-65.74516953 124.54503353 -65.85200092 90.96300143 -65.95422363 57.38095093 C-65.29422363 57.38095093 -64.63422363 57.38095093 -63.95422363 57.38095093 C-64.13541748 56.79845581 -64.31661133 56.21596069 -64.5032959 55.61581421 C-65.23573451 51.98574215 -63.94285108 48.71975616 -62.89172363 45.25595093 C-62.66130371 44.49403442 -62.43088379 43.73211792 -62.19348145 42.94711304 C-57.02455244 26.63029587 -45.13923426 14.09837845 -30.14172363 6.13095093 C-20.61623801 1.23762786 -10.56820158 -0.06784514 0 0 Z " fill="#FEFB00" transform="translate(222.9542236328125,3.619049072265625)"/>
<path d="M0 0 C12.93138231 11.1260907 20.41837754 23.81525873 22.26171875 40.90234375 C22.57229523 47.79293854 22.45118636 54.69485085 22.38671875 61.58984375 C22.37666859 63.4667921 22.36754634 65.34374566 22.359375 67.22070312 C22.33752344 71.78138048 22.30310585 76.34180355 22.26171875 80.90234375 C26.85072501 80.29356694 30.86266986 79.46386676 35.19921875 77.83984375 C41.28952833 75.75391272 46.11216468 74.4280844 52.19921875 77.27734375 C54.77080622 79.30344297 55.15196615 80.32614258 55.76171875 83.52734375 C54.90751719 89.29320425 50.5480777 93.11001706 46.06298828 96.62597656 C43.7658189 98.21379105 41.43791256 99.72803552 39.07421875 101.21484375 C37.49687169 102.23095765 35.9200311 103.24785828 34.34375 104.265625 C33.65514893 104.70173096 32.96654785 105.13783691 32.25708008 105.5871582 C28.03956307 108.02760859 28.03956307 108.02760859 25.6953125 111.9609375 C25.71455117 123.67728648 31.31847778 132.84403988 38.26171875 141.90234375 C38.8340625 142.71316406 39.40640625 143.52398437 39.99609375 144.359375 C48.27870731 155.59753656 59.73252407 163.08744338 71.92749023 169.5546875 C74.03515625 170.7109375 74.03515625 170.7109375 77.26171875 172.90234375 C77.26171875 176.90234375 77.26171875 176.90234375 75.9609375 178.39453125 C69.70247581 182.69646414 63.07227316 184.7715428 55.8269043 186.81005859 C54.62287964 187.15544678 54.62287964 187.15544678 53.39453125 187.5078125 C52.67152832 187.70528076 51.94852539 187.90274902 51.20361328 188.10620117 C48.95906984 189.02642448 47.80203628 190.04187723 46.26171875 191.90234375 C45.36984563 194.44996279 44.7517014 197.00544978 44.10546875 199.625 C43.26171875 201.90234375 43.26171875 201.90234375 40.26171875 203.90234375 C38.24389648 204.18945312 38.24389648 204.18945312 35.9453125 204.24609375 C35.10355469 204.27413086 34.26179687 204.30216797 33.39453125 204.33105469 C32.06035156 204.36634277 32.06035156 204.36634277 30.69921875 204.40234375 C14.91247298 205.03493321 2.916484 209.03890312 -10.72412109 217.01660156 C-25.85445995 225.84438912 -41.34176062 228.24141878 -58.67578125 225.21484375 C-65.90367339 223.12987486 -72.28295274 219.7040241 -78.73828125 215.90234375 C-80.56584325 214.85058442 -82.39922899 213.80888015 -84.23828125 212.77734375 C-85.03234375 212.32101562 -85.82640625 211.8646875 -86.64453125 211.39453125 C-97.02053503 206.38994357 -106.15650483 205.21042327 -117.59375 204.85742188 C-126.98157802 204.38201964 -126.98157802 204.38201964 -129.98828125 201.5625 C-132.12116223 198.32033048 -132.31392037 195.72159167 -132.73828125 191.90234375 C-134.87683002 189.11939924 -137.03568989 188.25356773 -140.34375 187.25390625 C-141.24544922 186.9703125 -142.14714844 186.68671875 -143.07617188 186.39453125 C-144.95586048 185.82250812 -146.83605922 185.25215825 -148.71679688 184.68359375 C-154.66432182 182.80942691 -159.63643708 180.50118518 -164.73828125 176.90234375 C-163.91650391 173.05712891 -163.91650391 173.05712891 -162.3125 171.6640625 C-161.68988281 171.30957031 -161.06726563 170.95507812 -160.42578125 170.58984375 C-159.70261719 170.16316406 -158.97945312 169.73648438 -158.234375 169.296875 C-156.48548385 168.31979497 -154.7267164 167.36028157 -152.9609375 166.4140625 C-144.72147926 161.87748825 -138.34132531 156.50538781 -131.73828125 149.90234375 C-130.49691406 148.66097656 -130.49691406 148.66097656 -129.23046875 147.39453125 C-121.65702196 139.41032125 -115.07535097 129.81527102 -112.73828125 118.90234375 C-112.56554687 118.14050781 -112.3928125 117.37867188 -112.21484375 116.59375 C-111.89272937 114.01248204 -111.89727352 112.37081508 -112.73828125 109.90234375 C-115.67537634 106.92735066 -119.14129109 104.99394429 -122.73828125 102.90234375 C-140.59801449 91.74847748 -140.59801449 91.74847748 -142.48828125 83.71484375 C-141.4348052 79.76430855 -140.07205803 78.26376897 -136.73828125 75.90234375 C-129.94706309 74.66757681 -124.40947369 77.24689993 -118.10546875 79.7109375 C-114.94623363 80.82876431 -112.03885813 81.39885123 -108.73828125 81.90234375 C-108.7539917 80.66258789 -108.76970215 79.42283203 -108.78588867 78.14550781 C-108.84067559 73.49371987 -108.87480674 68.84195976 -108.90307617 64.18994141 C-108.91805267 62.1863117 -108.93844106 60.18271414 -108.96459961 58.17919922 C-109.2361897 36.82476269 -106.08742754 19.92035799 -91.11328125 3.77734375 C-83.14104949 -3.84022393 -73.28491191 -9.06609827 -62.73828125 -12.09765625 C-61.63033203 -12.43410156 -61.63033203 -12.43410156 -60.5 -12.77734375 C-39.88923603 -17.97453121 -16.7542466 -12.83456551 0 0 Z " fill="#FDFDFD" transform="translate(393.73828125,90.09765625)"/>
<path d="M0 0 C15.75435892 12.50955871 25.77453221 28.73086805 28.625 48.6875 C28.84819559 53.06728951 28.8162687 57.4285705 28.75 61.8125 C28.74097656 62.95976562 28.73195313 64.10703125 28.72265625 65.2890625 C28.69932538 68.08876748 28.66659232 70.88801695 28.625 73.6875 C30.14480469 73.65269531 30.14480469 73.65269531 31.6953125 73.6171875 C33.04686758 73.5984159 34.39843069 73.5802172 35.75 73.5625 C36.41515625 73.54574219 37.0803125 73.52898437 37.765625 73.51171875 C45.27543261 73.43809319 51.19557613 75.54848718 56.625 80.6875 C61.39813076 86.43204683 62.42328448 92.11135687 62.10546875 99.47265625 C60.85112737 107.8655258 56.26508565 114.55294984 49.625 119.6875 C46.58116239 121.67780436 43.49504481 123.60206685 40.33618164 125.40454102 C37.54495113 127.06957201 35.84874344 128.14460555 34.58984375 131.19921875 C34.71319157 139.92950324 43.99454858 148.99709617 49.75390625 154.8515625 C56.64831382 161.24029795 64.32964911 166.23485544 72.875 170.125 C78.49659578 172.81475875 82.82368979 177.08487958 85.625 182.6875 C86.17434706 189.05992584 85.33656235 193.41708147 81.625 198.6875 C74.88398824 206.69880293 64.78674412 210.16679668 55 213.0625 C50.88818205 215.0422642 50.24399414 216.63469602 48.546875 220.69140625 C46.35831521 225.43019461 42.15401828 228.36492652 37.625 230.6875 C34.46790691 231.6527232 31.44160858 231.89943286 28.15234375 232.08203125 C27.08693359 232.15099609 26.02152344 232.21996094 24.92382812 232.29101562 C22.71088445 232.42860132 20.4973113 232.55646325 18.28320312 232.67382812 C8.80284161 233.31646811 0.25166491 235.3646556 -7.5625 241 C-25.82412936 253.07917162 -47.19677452 257.62220159 -68.75 253.5 C-76.89009844 251.48110809 -83.79359336 248.22436233 -91 243.98828125 C-91.83249268 243.49908203 -92.66498535 243.00988281 -93.52270508 242.50585938 C-95.18063456 241.52286321 -96.83190901 240.5285297 -98.4753418 239.52148438 C-108.39552435 233.57411789 -117.58628891 233.21351927 -129 232.74023438 C-137.38137601 232.22532016 -144.64080789 230.52364957 -150.6640625 224.3359375 C-151.10492188 223.58570313 -151.54578125 222.83546875 -152 222.0625 C-152.46664062 221.30710937 -152.93328125 220.55171875 -153.4140625 219.7734375 C-154.375 217.6875 -154.375 217.6875 -154.375 214.6875 C-155.179375 214.501875 -155.179375 214.501875 -156 214.3125 C-167.54131209 211.27531261 -180.80221632 206.18630884 -187.375 195.6875 C-189.87447716 191.35850862 -190.1265774 187.59295681 -189.375 182.6875 C-186.70379286 175.21625567 -181.02997882 172.282094 -174.375 168.6875 C-160.81672956 160.80791037 -150.11702097 152.72768128 -141.375 139.6875 C-140.7975 138.84703125 -140.22 138.0065625 -139.625 137.140625 C-138.1336419 134.21383473 -137.56378861 132.90211409 -138.375 129.6875 C-140.71911581 127.8110006 -142.87843334 126.33072762 -145.4375 124.8125 C-154.00211613 119.40637352 -161.98121532 113.70293569 -165.375 103.6875 C-166.50443103 94.82415552 -165.53641811 88.37511996 -160.5625 81 C-155.66573201 75.8234167 -150.19767249 73.00149704 -143.03515625 72.53515625 C-139.48138044 72.48331835 -136.77546644 72.55401119 -133.375 73.6875 C-133.40980469 72.65753906 -133.44460938 71.62757813 -133.48046875 70.56640625 C-134.02997824 46.91226554 -128.77592945 25.00747529 -112.19897461 7.34765625 C-82.17458962 -23.19909294 -33.88924085 -24.12014846 0 0 Z M-105.375 22.6875 C-114.51095665 34.43686733 -117.74090576 47.37915363 -117.5703125 62.0703125 C-117.56606766 63.48073318 -117.56606766 63.48073318 -117.56173706 64.91964722 C-117.55065978 67.88406827 -117.52557951 70.84817231 -117.5 73.8125 C-117.48995407 75.83853726 -117.48083106 77.86457932 -117.47265625 79.890625 C-117.45076144 84.82303635 -117.41631957 89.75521468 -117.375 94.6875 C-122.16240854 93.51338068 -126.74162756 92.26224261 -131.375 90.5625 C-136.38363644 88.88874381 -140.12716883 87.85889508 -145.375 88.6875 C-148.70877678 91.04892522 -150.07152395 92.5494648 -151.125 96.5 C-148.95115017 105.7388618 -139.57699001 110.53064143 -132.09375 115.29296875 C-130.85336141 116.08989387 -129.61378544 116.88808514 -128.375 117.6875 C-127.71467773 118.10725098 -127.05435547 118.52700195 -126.37402344 118.95947266 C-121.5183552 122.19205911 -121.5183552 122.19205911 -120.79467773 124.69311523 C-119.77046437 136.73167493 -128.06097037 148.83381318 -135.375 157.6875 C-145.16681668 169.06033845 -156.46680625 176.77324049 -169.703125 183.71484375 C-171.55451464 184.69660278 -171.55451464 184.69660278 -173.375 186.6875 C-173.43965222 188.71161497 -173.43965222 188.71161497 -172.375 190.6875 C-165.68901586 195.41484141 -157.54354081 197.79727503 -149.72045898 199.95092773 C-143.32664574 201.76700156 -143.32664574 201.76700156 -141.375 204.6875 C-140.75248448 206.96318587 -140.43596932 209.19805642 -140.09765625 211.53125 C-139.13144106 214.41422722 -137.95756864 215.11830973 -135.375 216.6875 C-132.71084128 217.19882271 -132.71084128 217.19882271 -129.7890625 217.2421875 C-128.70020752 217.29640869 -127.61135254 217.35062988 -126.48950195 217.40649414 C-124.76219849 217.48371704 -124.76219849 217.48371704 -123 217.5625 C-108.53401626 218.47175648 -98.1897524 221.65591941 -85.93164062 229.37133789 C-71.01915959 238.66425465 -54.81951685 240.8501938 -37.5625 238.07421875 C-27.98029929 235.3552693 -19.31275038 230.12329028 -10.7421875 225.1640625 C-1.97640425 220.1245007 6.38166645 217.78640119 16.54296875 217.51171875 C17.40470703 217.48787109 18.26644531 217.46402344 19.15429688 217.43945312 C20.93790052 217.39620631 22.72183705 217.36510873 24.50585938 217.34570312 C29.65133519 217.20732819 29.65133519 217.20732819 34.171875 214.95703125 C35.77746858 212.4493703 36.22818942 210.61281788 36.6875 207.6875 C37.57353195 204.4082187 37.99458099 203.08367085 40.90625 201.25390625 C43.79050487 200.21281987 46.64397175 199.40435699 49.625 198.6875 C56.57509515 196.88026872 63.37423729 194.8748477 68.625 189.6875 C68.625 188.3675 68.625 187.0475 68.625 185.6875 C67.22090028 184.34311992 67.22090028 184.34311992 65.2578125 183.390625 C64.54149658 182.99319092 63.82518066 182.59575684 63.0871582 182.1862793 C62.315896 181.77418213 61.54463379 181.36208496 60.75 180.9375 C53.82014082 177.06123351 47.63779214 172.90146518 41.625 167.6875 C40.64917969 166.91148437 39.67335938 166.13546875 38.66796875 165.3359375 C28.42203043 156.79199304 18.39341941 141.37367181 16.625 128 C16.6640625 125.375 16.6640625 125.375 17.625 122.6875 C21.35178685 119.16017498 25.43954296 116.49482622 29.79931641 113.81298828 C39.35031433 107.97684502 39.35031433 107.97684502 46.625 99.6875 C47.19008317 96.15573016 47.07604036 94.48219015 45.3125 91.375 C42.86603269 88.92853269 40.76508768 88.70366396 37.375 88.3125 C32.2735722 88.33153518 27.63657645 90.1763824 22.90527344 91.90869141 C19.54779717 93.125885 17.25719846 93.6875 13.625 93.6875 C13.64071045 91.95632935 13.64071045 91.95632935 13.65673828 90.19018555 C13.69325595 85.86079069 13.71601476 81.53140912 13.73486328 77.2019043 C13.7448491 75.33697206 13.75844246 73.47205519 13.77587891 71.60717773 C13.95505251 51.93496949 12.53074659 34.88680441 -1.375 19.6875 C-1.89578125 19.06359375 -2.4165625 18.4396875 -2.953125 17.796875 C-10.93080425 8.85220433 -23.03985805 3.75680117 -34.375 0.6875 C-36.25058594 0.15382813 -36.25058594 0.15382813 -38.1640625 -0.390625 C-62.70339219 -6.40817599 -89.17314828 4.03200247 -105.375 22.6875 Z " fill="#050502" transform="translate(402.375,77.3125)"/>
<path d="M0 0 C0.66 0.33 1.32 0.66 2 1 C0.90344712 2.31886772 -0.20253423 3.62990057 -1.3125 4.9375 C-1.92738281 5.66839844 -2.54226562 6.39929688 -3.17578125 7.15234375 C-5 9 -5 9 -8 10 C-8 10.66 -8 11.32 -8 12 C-8.66 12 -9.32 12 -10 12 C-8.52278578 8.54798361 -6.56205999 6.35038064 -3.875 3.75 C-3.15054688 3.04359375 -2.42609375 2.3371875 -1.6796875 1.609375 C-1.12539062 1.07828125 -0.57109375 0.5471875 0 0 Z " fill="#FBF936" transform="translate(181,17)"/>
</svg>
